<?xml version="1.0" standalone="no"?>
<!DOCTYPE svg PUBLIC "-//W3C//DTD SVG 20010904//EN"
 "http://www.w3.org/TR/2001/REC-SVG-20010904/DTD/svg10.dtd">
<svg version="1.0" xmlns="http://www.w3.org/2000/svg"
 width="289.000000pt" height="289.000000pt" viewBox="0 0 289.000000 289.000000"
 preserveAspectRatio="xMidYMid meet">
<metadata>
Created by potrace 1.11, written by Peter Selinger 2001-2013
</metadata>
<g transform="translate(0.000000,289.000000) scale(0.100000,-0.100000)"
fill="#000000" stroke="none">
<path d="M0 1445 l0 -1445 1445 0 1445 0 0 1445 0 1445 -1445 0 -1445 0 0
-1445z m1265 1308 c51 -146 98 -262 282 -698 30 -71 72 -172 94 -223 40 -98
220 -504 226 -511 7 -9 111 46 183 98 121 86 208 188 231 273 5 21 14 38 19
38 5 0 22 -24 37 -52 26 -51 27 -61 31 -240 2 -103 2 -198 -2 -211 -4 -19 -35
-36 -182 -98 -97 -41 -178 -79 -181 -86 -5 -13 168 -360 218 -438 43 -67 109
-135 131 -135 9 0 53 16 97 35 43 19 84 35 90 35 18 0 51 -39 51 -59 0 -14
-13 -24 -51 -36 -144 -48 -617 -266 -669 -309 -45 -37 -151 -95 -164 -90 -21
8 -29 39 -17 63 6 10 33 36 61 56 78 57 84 81 51 195 -44 152 -187 510 -204
510 -25 0 -628 -277 -907 -418 -302 -152 -325 -162 -338 -145 -16 22 -18 13
53 243 194 633 386 1498 453 2035 l7 60 175 92 c96 50 180 92 186 92 6 1 24
-34 39 -76z"/>
<path d="M966 2264 c-55 -182 -323 -1270 -361 -1466 -15 -78 -16 -78 66 -49
163 56 819 362 819 382 0 29 -485 1117 -510 1143 -4 4 -11 0 -14 -10z"/>
</g>
</svg>
