<?xml version="1.0" standalone="no"?>
<!DOCTYPE svg PUBLIC "-//W3C//DTD SVG 20010904//EN"
 "http://www.w3.org/TR/2001/REC-SVG-20010904/DTD/svg10.dtd">
<svg version="1.0" xmlns="http://www.w3.org/2000/svg"
 width="1227.000000pt" height="1227.000000pt" viewBox="0 0 1227.000000 1227.000000"
 preserveAspectRatio="xMidYMid meet">
<metadata>
Created by potrace 1.11, written by Peter Selinger 2001-2013
</metadata>
<g transform="translate(0.000000,1227.000000) scale(0.100000,-0.100000)"
fill="#000000" stroke="none">
<path d="M3266 12202 c-38 -164 -37 -256 4 -422 17 -69 38 -152 46 -185 8 -33
30 -91 49 -129 28 -57 32 -71 22 -87 -6 -10 -18 -19 -25 -19 -7 0 -15 -7 -18
-15 -4 -8 -12 -15 -19 -15 -7 0 -12 -8 -11 -17 1 -12 -7 -19 -24 -21 -14 -2
-29 -7 -35 -12 -5 -4 -53 -22 -105 -40 -114 -40 -162 -61 -300 -136 -97 -52
-221 -133 -245 -159 -5 -6 -48 -45 -94 -86 -46 -41 -97 -94 -114 -119 -16 -25
-35 -50 -41 -55 -25 -23 -74 -92 -81 -115 -4 -14 -20 -41 -36 -60 -44 -55
-126 -231 -160 -343 -33 -108 -40 -136 -59 -232 -7 -33 -18 -89 -26 -125 -8
-36 -14 -72 -14 -81 0 -9 -7 -22 -15 -29 -9 -7 -14 -19 -11 -26 3 -7 1 -16 -4
-19 -5 -3 -7 -12 -4 -20 3 -7 -2 -24 -10 -37 -14 -21 -14 -26 -1 -45 14 -19
13 -23 -9 -44 -19 -18 -22 -28 -16 -45 7 -16 5 -24 -6 -28 -21 -8 -34 -7 -33
2 1 4 0 10 -1 15 -1 4 -3 12 -4 17 -2 21 -21 14 -24 -10 -2 -14 -6 -32 -9 -40
-3 -8 -5 -19 -4 -25 3 -12 -50 -118 -61 -123 -5 -2 -8 -11 -8 -19 0 -11 7 -7
21 11 11 14 25 24 30 21 16 -11 10 -21 -33 -52 -106 -77 -311 -305 -393 -437
-11 -18 -32 -48 -46 -67 -14 -19 -33 -47 -41 -64 -9 -16 -33 -61 -54 -100
-197 -369 -294 -670 -294 -913 l0 -106 -40 -61 c-22 -34 -51 -72 -65 -85 -14
-13 -25 -28 -25 -33 0 -5 -12 -24 -27 -42 -33 -39 -105 -153 -164 -260 -12
-22 -25 -42 -29 -45 -10 -6 -78 -147 -112 -230 -66 -164 -83 -227 -107 -385
-11 -75 0 -327 18 -398 14 -57 81 -185 131 -252 25 -33 52 -79 59 -102 8 -25
20 -43 29 -43 8 0 12 -6 9 -14 -3 -8 1 -17 9 -20 25 -9 15 -34 -18 -45 -17 -6
-60 -16 -95 -21 -56 -9 -74 -8 -156 15 -80 21 -200 47 -330 69 l-37 7 0 -1626
0 -1627 40 32 c23 18 51 46 64 64 39 51 86 145 86 171 0 63 54 28 64 -42 4
-34 2 -53 -10 -71 -8 -13 -13 -30 -10 -38 3 -9 -1 -14 -14 -14 -11 0 -20 -5
-20 -11 0 -12 -26 -76 -41 -99 -5 -8 -23 -44 -40 -80 -17 -36 -46 -96 -64
-135 -56 -120 -55 -108 -55 -569 1 -387 3 -434 18 -463 23 -43 212 -243 230
-243 16 0 102 -60 102 -71 0 -11 -60 -77 -161 -179 -47 -47 -108 -113 -137
-148 l-52 -63 0 -195 0 -194 113 0 113 0 16 36 c9 20 14 44 10 54 -7 19 -9 20
-38 20 -23 0 -14 57 27 186 55 174 100 255 190 342 44 42 79 83 78 92 -3 30 2
37 36 56 19 10 35 22 35 25 0 7 41 34 107 71 18 10 42 18 54 18 11 0 18 4 14
9 -3 5 -1 12 5 16 5 3 10 1 10 -4 0 -20 16 -11 30 15 8 14 26 28 42 31 15 3
39 20 53 39 14 19 31 34 38 34 7 0 34 16 61 35 27 19 54 35 59 35 8 0 144 93
175 120 7 7 23 17 35 24 47 25 67 41 67 53 0 7 8 13 19 13 10 0 36 19 57 43
21 23 47 47 58 52 10 6 19 15 20 20 2 15 62 65 77 65 10 -1 9 -4 -3 -14 -10
-7 -16 -15 -13 -18 3 -2 -3 -27 -13 -55 -18 -52 -128 -202 -149 -203 -18 0
-26 -19 -14 -34 8 -10 6 -18 -10 -32 -23 -21 -67 -112 -76 -158 -3 -17 -11
-38 -18 -46 -18 -20 -38 -99 -30 -117 3 -9 -2 -24 -10 -33 -9 -10 -15 -24 -14
-32 3 -13 -6 -47 -21 -83 -12 -30 -40 -121 -61 -204 -19 -73 -28 -267 -16
-318 3 -11 8 -43 12 -70 4 -26 9 -56 12 -65 4 -17 130 -18 2456 -18 l2452 0
-40 37 c-22 20 -87 77 -145 126 -58 49 -118 100 -133 114 -15 13 -25 28 -22
33 4 6 -5 10 -18 10 -13 0 -34 12 -48 27 -13 14 -19 23 -13 20 7 -4 14 2 17
12 4 15 10 18 28 14 22 -6 22 -7 3 -14 -14 -6 -15 -8 -3 -8 9 -1 24 -10 34
-21 18 -20 41 -28 31 -11 -3 4 6 6 19 3 29 -5 34 -29 8 -34 -15 -3 -14 -5 4
-10 12 -3 22 -3 21 1 -2 18 3 22 16 12 8 -7 17 -8 20 -3 3 5 -6 15 -19 22 -14
7 -25 17 -25 21 0 12 30 25 72 32 36 5 37 5 27 -20 -5 -13 -6 -29 -3 -34 3 -6
0 -17 -7 -25 -10 -12 -9 -13 5 -8 11 4 16 1 16 -10 0 -19 9 -20 33 -2 24 18
21 26 -8 26 -23 0 -25 3 -19 28 9 35 13 42 25 42 6 0 9 -8 7 -18 -1 -10 7 -29
20 -42 12 -13 20 -30 18 -36 -6 -17 19 -50 28 -36 3 6 2 13 -4 17 -6 4 -2 15
10 27 18 20 21 20 38 5 20 -19 52 -23 52 -7 0 6 5 10 10 10 6 0 10 -7 10 -15
0 -20 17 -19 28 1 12 21 46 14 50 -11 7 -45 12 -51 27 -31 12 16 17 17 30 6
13 -11 15 -9 15 11 0 13 5 31 10 39 9 13 11 13 20 0 6 -9 13 -11 18 -5 4 6 16
15 27 21 11 6 21 19 21 28 2 13 1 13 -3 1 -4 -13 -33 -19 -80 -18 -7 1 -13 -5
-13 -12 0 -7 -7 -18 -15 -25 -11 -9 -19 -9 -35 3 -21 14 -12 35 9 22 5 -3 13
0 17 6 7 12 -35 9 -68 -6 -14 -5 -18 -2 -18 14 0 12 6 21 16 21 9 0 14 6 11
13 -2 6 2 17 10 22 9 7 2 11 -29 12 -23 2 -46 7 -52 13 -7 7 -6 10 2 10 7 0
12 6 12 13 0 9 -11 12 -37 9 -36 -5 -63 14 -63 42 0 6 5 4 10 -4 8 -12 10 -11
10 6 0 12 -7 25 -16 28 -23 9 -24 8 -24 -14 0 -11 -5 -20 -11 -20 -7 0 -9 9
-6 21 6 21 -19 40 -32 23 -3 -5 -23 -10 -43 -10 -28 -1 -38 3 -38 14 0 11 8
13 40 8 38 -6 40 -5 40 19 0 14 -5 25 -11 25 -5 0 -7 -5 -4 -10 9 -15 -24 -25
-37 -12 -8 8 -7 13 5 18 36 13 14 23 -50 23 -101 -1 -97 -1 -83 16 16 20 5 32
-14 16 -9 -8 -16 -8 -20 -2 -4 5 -2 12 4 16 16 10 12 22 -10 28 -11 3 -20 9
-19 14 4 22 -3 33 -21 33 -11 0 -20 -5 -20 -11 0 -8 -5 -8 -15 1 -8 7 -15 19
-15 26 0 7 -6 11 -14 8 -8 -3 -19 3 -26 15 -6 12 -18 21 -27 21 -9 0 -26 8
-37 19 -40 36 -87 37 -53 2 10 -11 9 -13 -3 -9 -8 3 -17 18 -20 34 -5 23 -11
28 -28 27 -12 -2 -22 2 -22 8 0 6 -6 9 -14 6 -8 -3 -17 1 -20 9 -5 12 -22 15
-86 12 -72 -4 -80 -2 -80 14 0 21 -18 23 -42 4 -21 -15 -23 -32 -5 -39 6 -3 2
-6 -10 -6 -27 -1 -53 9 -53 20 0 5 7 9 15 9 8 0 15 7 15 15 0 18 -11 19 -63 3
-36 -11 -41 -10 -57 10 -12 14 -29 22 -49 22 -25 0 -31 4 -31 21 0 14 -5 19
-14 16 -8 -3 -31 3 -52 14 -21 10 -44 19 -51 19 -7 0 -13 9 -13 19 0 11 -5 23
-11 27 -13 7 -8 161 5 182 6 10 22 5 64 -20 148 -85 461 -241 537 -269 11 -4
45 -18 75 -31 30 -14 83 -35 116 -47 56 -21 64 -27 88 -74 33 -66 77 -91 252
-148 71 -23 134 -47 139 -54 6 -7 21 -16 35 -20 14 -4 30 -11 35 -15 6 -4 32
-13 58 -20 27 -7 51 -19 54 -27 3 -7 13 -13 22 -13 9 0 21 -4 26 -9 6 -5 21
-11 35 -13 14 -2 24 -9 22 -16 -1 -8 2 -11 8 -7 14 8 140 -52 140 -67 0 -6 3
-9 6 -5 4 3 23 -1 43 -9 36 -16 55 -20 98 -23 14 0 20 -6 18 -13 -4 -10 11
-13 57 -12 101 2 100 1 93 25 -6 17 -4 20 12 16 10 -3 36 -9 58 -13 22 -4 56
-12 75 -19 19 -7 61 -18 92 -25 47 -11 60 -11 73 0 16 14 48 4 85 -27 16 -13
86 -52 150 -84 45 -22 144 -56 240 -81 41 -11 78 -22 82 -24 4 -3 -6 -17 -22
-31 -17 -14 -35 -34 -41 -44 -9 -19 38 -19 2321 -19 l2330 0 0 910 c0 902 0
910 -20 910 -11 0 -20 5 -20 10 0 6 9 10 20 10 20 0 20 7 20 1090 0 865 -3
1090 -12 1090 -30 0 -125 54 -194 111 -103 84 -178 199 -129 199 8 0 15 8 15
18 0 11 13 24 33 33 20 9 31 20 29 30 -3 22 24 32 49 19 15 -9 19 -7 19 5 0 9
7 23 15 32 18 17 12 31 -19 43 -20 8 -19 9 6 9 15 1 31 -6 36 -15 5 -10 18
-14 33 -12 23 5 22 5 -8 17 -18 7 -33 17 -33 23 0 6 7 8 15 4 8 -3 14 -2 12 2
-6 20 33 52 71 58 47 7 53 23 22 54 -24 24 -25 30 -5 30 8 0 15 5 15 11 0 6 7
9 15 5 11 -4 15 1 15 19 0 17 -6 25 -17 25 -17 1 -17 1 0 14 16 12 17 43 17
402 0 375 -1 390 -20 401 -12 8 -21 9 -25 3 -3 -6 -1 -10 4 -10 6 0 11 -4 11
-10 0 -5 -13 -10 -28 -10 -15 0 -33 -5 -39 -11 -8 -8 -13 -8 -17 0 -10 15 -52
14 -68 -3 -12 -12 -59 -31 -65 -27 -5 2 2 16 7 14 3 -1 6 14 8 33 1 25 -3 36
-15 41 -9 4 -19 1 -21 -5 -2 -7 -8 -12 -14 -12 -6 0 -8 6 -5 14 3 7 1 18 -5
24 -7 7 -4 20 11 41 21 29 21 30 2 40 -21 12 -18 49 4 58 7 2 12 18 11 34 -1
18 3 29 11 29 7 0 13 5 13 10 0 6 7 10 15 10 9 0 12 6 9 15 -4 9 0 15 9 15 8
0 18 6 20 13 4 9 6 9 6 0 1 -7 12 -13 26 -13 31 0 33 -20 3 -28 -21 -5 -21 -6
-3 -12 27 -9 42 8 37 42 -3 22 0 28 15 28 14 0 19 7 19 23 -1 20 3 22 42 21
30 -2 42 2 42 12 0 7 -6 11 -12 9 -18 -6 -52 21 -43 34 3 6 17 11 31 11 l24 0
0 385 c0 378 0 385 -20 385 -11 0 -20 5 -20 11 0 6 9 13 20 16 20 5 20 14 20
694 0 752 3 711 -62 924 -16 55 -34 116 -39 135 -6 19 -14 44 -19 55 -5 11
-28 70 -51 130 -23 61 -75 178 -115 262 -41 83 -74 154 -74 157 0 4 -18 31
-40 61 -22 30 -40 57 -40 61 0 9 -88 114 -117 140 -23 19 -23 23 -13 90 12 88
12 279 0 367 -43 299 -300 674 -695 1016 -103 89 -265 220 -322 260 -18 12
-36 33 -39 47 -4 14 -16 27 -30 30 -13 3 -24 10 -24 14 0 15 -89 100 -114 110
-13 5 -34 6 -46 3 -25 -7 -70 15 -70 34 0 7 -7 16 -15 19 -8 4 -15 14 -15 23
0 9 -9 22 -20 29 -12 7 -17 18 -13 28 5 13 2 15 -14 10 -15 -5 -25 0 -37 19
-17 26 -9 34 12 13 7 -7 12 -9 12 -4 0 21 -33 37 -72 35 -44 -4 -64 14 -28 24
17 4 20 11 15 26 -4 13 -2 21 6 21 8 0 8 4 -1 15 -11 14 -14 13 -27 -5 -8 -11
-18 -18 -23 -15 -14 9 -1 32 20 38 13 3 17 11 13 26 -4 15 1 23 18 30 13 4 30
6 37 4 15 -6 16 13 1 23 -7 4 2 19 25 39 20 17 36 35 36 39 0 12 58 64 80 71
12 4 19 9 17 11 -3 3 8 19 24 37 16 17 37 50 48 72 11 23 26 47 35 54 9 8 16
26 16 41 0 18 8 33 25 44 21 14 23 19 13 36 -10 15 -9 26 5 54 l17 36 -1480 0
c-1101 0 -1480 -3 -1480 -11 0 -8 16 -10 50 -6 40 5 50 3 50 -8 0 -8 5 -15 10
-15 6 0 10 7 10 15 0 24 25 18 46 -11 22 -29 64 -54 93 -54 12 0 27 12 35 28
8 15 15 21 16 14 0 -7 -5 -22 -10 -32 -8 -15 -6 -21 11 -30 27 -15 49 -6 49
20 0 11 6 20 13 21 6 0 3 5 -8 10 -14 6 -10 7 15 2 19 -4 53 -7 74 -8 30 0 41
-5 46 -20 6 -17 7 -16 14 8 7 29 26 37 26 12 0 -19 10 -19 37 0 23 16 65 12
90 -7 7 -5 17 -7 23 -3 5 3 20 3 32 -1 19 -6 19 -7 4 -16 -22 -12 -10 -31 15
-23 11 4 19 3 18 -2 -6 -32 5 -53 40 -78 27 -18 46 -25 60 -20 16 5 20 3 15
-9 -7 -19 7 -21 24 -4 9 9 12 8 12 -7 0 -17 1 -17 18 -2 26 24 41 21 48 -8 6
-26 20 -33 26 -14 2 6 28 11 58 11 30 1 46 3 35 5 -28 7 -45 25 -20 22 11 -1
28 1 37 5 13 6 25 -1 44 -24 19 -21 29 -28 34 -19 10 16 33 1 26 -18 -4 -8 -1
-11 5 -8 6 4 8 13 5 21 -3 8 1 14 8 14 8 0 16 -7 20 -15 8 -23 35 -18 46 9 11
29 30 43 30 22 0 -10 9 -16 22 -16 12 0 18 -3 14 -7 -4 -5 -19 -8 -33 -8 -15
0 -27 -6 -28 -15 -2 -11 8 -15 38 -15 29 0 47 -6 63 -22 13 -13 27 -23 32 -23
5 0 12 -9 15 -20 3 -11 1 -18 -4 -14 -5 3 -9 1 -9 -4 0 -17 83 -20 103 -4 16
14 17 13 17 -11 0 -26 -8 -31 -40 -28 -9 2 -5 -5 9 -15 27 -20 56 -9 56 21 0
10 6 20 13 23 9 3 11 -3 6 -21 -9 -39 4 -52 27 -26 11 13 25 19 34 15 22 -8 9
-26 -18 -27 -14 -1 -10 -4 13 -9 19 -5 38 -6 42 -4 12 8 21 -17 10 -28 -17
-17 13 -41 39 -33 19 6 21 4 15 -18 -3 -14 -2 -29 4 -32 5 -3 10 -13 10 -20 0
-19 31 -55 47 -55 7 0 18 -9 25 -20 7 -11 19 -20 26 -20 8 0 10 -8 7 -22 -3
-13 2 -34 10 -48 8 -14 17 -32 20 -40 4 -9 15 -22 26 -29 22 -13 48 -2 91 41
11 11 22 17 25 15 2 -3 11 -31 19 -63 9 -34 29 -74 50 -99 19 -23 34 -47 34
-52 0 -5 9 -18 20 -28 11 -10 20 -25 20 -33 0 -8 8 -22 19 -31 10 -9 28 -35
40 -58 11 -23 46 -84 77 -135 31 -51 70 -118 87 -148 16 -30 45 -84 65 -120
19 -36 49 -92 66 -125 17 -33 33 -62 36 -65 20 -20 180 -367 180 -391 1 -8 9
-32 20 -54 11 -22 19 -46 20 -53 0 -7 9 -32 20 -54 11 -23 18 -44 15 -46 -3
-3 -28 5 -55 18 l-51 24 -45 -22 c-24 -12 -49 -22 -55 -22 -6 0 -25 -6 -42
-14 -18 -8 -54 -22 -82 -32 -27 -9 -59 -25 -70 -34 -11 -9 -67 -45 -125 -80
-58 -35 -123 -75 -145 -90 -40 -27 -87 -33 -126 -16 -10 4 -36 -2 -63 -15 -25
-11 -56 -19 -67 -16 -22 6 -56 -7 -184 -70 -110 -54 -333 -183 -370 -214 -11
-10 -42 -33 -70 -51 -42 -27 -51 -39 -53 -67 -2 -19 -12 -46 -23 -59 -31 -39
-21 -100 14 -86 29 11 19 -11 -18 -40 -38 -31 -44 -50 -19 -64 18 -10 87 22
125 57 46 43 42 20 -5 -28 -52 -52 -56 -81 -13 -81 13 0 28 -5 34 -11 7 -7 28
-13 48 -14 34 -2 45 6 133 90 53 51 157 142 230 204 188 158 187 157 264 249
38 45 74 82 80 82 6 0 31 15 57 34 65 48 254 162 334 202 59 30 164 73 220 91
19 6 135 -39 180 -70 15 -10 34 -34 42 -53 25 -61 93 -257 115 -334 12 -41 25
-86 30 -100 23 -68 81 -272 94 -326 11 -51 11 -67 0 -100 -8 -21 -14 -67 -14
-100 0 -64 -15 -125 -55 -229 -32 -84 -66 -167 -76 -187 -5 -10 -9 -27 -9 -37
0 -11 -4 -22 -9 -25 -4 -3 -16 -31 -25 -63 -9 -32 -19 -63 -24 -69 -4 -6 -38
-23 -77 -38 -38 -15 -80 -31 -92 -36 -58 -24 -180 107 -151 163 6 12 14 27 17
34 3 6 23 36 43 65 33 49 41 78 27 92 -3 3 -16 -13 -30 -35 -46 -76 -90 -129
-107 -129 -9 0 -27 8 -40 18 -20 16 -21 20 -10 49 17 44 1 54 -28 18 -20 -25
-27 -28 -42 -18 -26 16 -134 42 -212 51 -64 7 -164 2 -249 -13 l-43 -8 7 32
c4 18 8 44 10 57 l2 25 -23 -22 c-13 -12 -24 -28 -24 -34 0 -39 -56 -95 -80
-80 -5 3 -20 -1 -32 -9 -13 -8 -61 -27 -108 -41 -47 -15 -101 -35 -120 -45
-19 -10 -69 -34 -110 -54 -91 -43 -161 -82 -169 -94 -3 -5 -33 -31 -66 -57
-33 -27 -82 -70 -110 -97 -27 -26 -56 -48 -62 -48 -7 0 -13 -7 -13 -15 0 -8
-7 -15 -15 -15 -8 0 -15 -4 -15 -10 0 -5 -5 -10 -11 -10 -5 0 -7 5 -4 10 3 6
-1 10 -9 10 -19 0 -21 -11 -4 -28 14 -14 -8 -46 -25 -35 -5 3 -7 1 -4 -4 10
-15 -27 -45 -47 -37 -18 7 -22 -16 -5 -33 7 -7 3 -12 -15 -17 -14 -3 -26 -11
-26 -16 0 -13 17 -13 25 0 3 5 23 7 45 5 22 -2 42 1 45 6 8 11 16 11 34 0 11
-7 8 -14 -15 -35 -16 -14 -39 -26 -51 -26 -16 0 -23 -6 -23 -20 0 -13 -9 -22
-26 -26 -55 -14 -127 -107 -128 -168 -1 -48 16 -56 47 -22 26 28 67 35 67 11
0 -8 -14 -21 -30 -30 -27 -14 -41 -35 -22 -35 4 0 66 -2 137 -5 72 -2 366 -5
655 -7 l525 -3 112 28 c61 15 128 29 150 31 21 2 59 8 85 15 26 6 57 11 70 12
13 0 52 2 88 4 76 5 114 -1 104 -17 -4 -7 -28 -8 -68 -4 -65 6 -91 1 -198 -36
-38 -13 -68 -29 -68 -37 0 -7 -6 -11 -14 -8 -8 3 -16 1 -19 -6 -2 -8 -30 -11
-88 -9 -186 6 -197 6 -214 -8 -15 -12 -9 -17 52 -47 37 -18 73 -33 78 -33 6 0
46 -23 90 -50 44 -28 87 -50 95 -50 8 0 33 -16 55 -35 33 -29 37 -36 25 -45
-8 -5 -26 -10 -39 -10 -13 0 -58 -6 -100 -14 -214 -40 -483 -52 -740 -34 -129
9 -194 -1 -189 -30 5 -26 108 -35 388 -35 244 0 282 3 525 46 99 18 209 52
224 71 13 16 4 116 -10 116 -15 0 -10 27 7 41 13 11 14 9 9 -12 -4 -17 -1 -30
10 -39 13 -11 18 -9 34 9 22 26 39 27 58 4 10 -13 16 -15 19 -5 8 17 34 15 34
-3 0 -8 5 -15 10 -15 6 0 9 6 8 13 -5 23 66 10 144 -27 106 -50 153 -48 88 4
-17 14 -36 30 -43 35 -7 6 -27 17 -44 24 -35 14 -43 35 -17 45 23 9 27 8 21
-8 -4 -10 -1 -13 8 -10 12 5 97 -35 119 -57 16 -14 69 -10 94 7 22 15 25 13
106 -73 118 -125 255 -286 256 -300 0 -7 6 -16 13 -20 29 -19 112 -176 122
-232 3 -22 19 -52 37 -72 29 -32 38 -64 38 -137 0 -15 9 -26 26 -32 23 -9 24
-11 10 -26 -20 -20 -20 -43 -1 -50 8 -4 12 -10 9 -15 -3 -6 0 -16 6 -24 9 -11
10 -19 1 -28 -13 -16 -5 -27 21 -27 22 0 24 -16 3 -24 -12 -4 -14 -18 -11 -64
2 -33 8 -68 14 -78 5 -11 6 -28 2 -39 -4 -11 -3 -37 2 -57 12 -55 -2 -168 -32
-248 -5 -14 -16 -51 -25 -82 -11 -42 -20 -58 -33 -59 -24 0 -55 -43 -107 -146
-80 -160 -168 -288 -296 -428 -87 -94 -87 -121 -3 -112 31 3 54 2 54 -4 0 -5
-4 -9 -10 -9 -5 0 -10 -13 -10 -29 0 -15 -9 -39 -19 -53 -13 -15 -18 -33 -14
-46 3 -12 0 -28 -6 -36 -16 -19 -12 -147 5 -166 11 -13 11 -30 -1 -100 -16
-91 -51 -369 -59 -460 -2 -30 -11 -109 -20 -175 -25 -194 -46 -394 -46 -445 0
-75 -58 -364 -95 -478 -44 -133 -155 -345 -223 -427 -4 -5 -28 -39 -52 -75
-24 -36 -55 -75 -67 -88 -13 -13 -31 -35 -41 -50 -9 -15 -29 -40 -43 -57 -15
-16 -64 -73 -109 -125 -104 -120 -247 -267 -369 -378 -52 -48 -108 -99 -124
-114 -16 -16 -31 -28 -33 -28 -3 0 -11 -6 -19 -12 -7 -7 -25 -22 -41 -33 -15
-11 -37 -31 -48 -44 -59 -67 -137 -143 -142 -139 -3 3 4 23 15 44 11 22 27 53
35 71 12 24 20 30 36 26 34 -9 53 3 40 27 -8 14 -8 20 0 20 6 0 10 12 8 28 -2
15 -7 26 -13 25 -5 -1 -11 10 -11 23 -3 35 21 30 45 -11 11 -20 28 -35 38 -35
15 1 15 4 -6 20 -18 15 -19 20 -7 20 9 0 16 8 16 20 0 13 7 20 20 20 11 0 20
4 20 8 0 4 -9 8 -20 8 -11 0 -20 -3 -20 -7 0 -4 -9 -5 -20 -2 -36 10 -17 48
35 72 l30 13 -28 14 c-27 15 -35 38 -17 49 6 3 10 -3 10 -14 0 -14 6 -21 19
-21 14 0 18 5 14 19 -3 11 7 30 24 50 16 17 40 54 54 81 13 27 27 50 32 50 11
0 8 30 -3 30 -5 0 -10 -7 -10 -15 0 -8 -6 -15 -13 -15 -18 0 -49 -34 -40 -43
3 -4 -1 -7 -10 -7 -10 0 -14 5 -11 15 4 8 1 15 -5 15 -6 0 -11 -5 -11 -10 0
-6 -11 -15 -25 -20 -27 -10 -34 -40 -10 -40 8 0 15 -4 15 -10 0 -14 -37 -12
-43 3 -4 9 -6 9 -6 -1 -1 -7 -5 -11 -10 -7 -5 3 -19 -8 -31 -25 -16 -23 -18
-30 -7 -30 8 0 17 10 21 22 4 16 8 20 16 12 13 -13 -3 -64 -20 -64 -5 0 -10
-7 -10 -15 0 -9 -12 -18 -30 -21 -16 -4 -30 -10 -30 -15 0 -5 -9 -9 -20 -9
-20 0 -110 -82 -129 -119 -6 -10 -18 -40 -27 -67 -9 -26 -34 -77 -55 -112 -21
-35 -39 -66 -39 -69 0 -6 -58 -105 -105 -179 -18 -27 -43 -70 -55 -94 -24 -46
-142 -196 -172 -218 -11 -8 -29 -23 -42 -35 -26 -24 -98 -86 -158 -137 -159
-135 -402 -247 -660 -306 -76 -17 -76 -17 -220 10 -223 43 -323 72 -453 135
-120 57 -214 114 -331 201 -34 25 -97 70 -140 100 -43 30 -96 71 -118 91 -39
34 -129 89 -147 89 -9 0 47 -86 59 -92 5 -2 24 -25 42 -53 37 -54 85 -105 99
-105 5 0 36 -27 69 -60 34 -33 57 -60 53 -60 -4 0 -47 14 -95 30 -48 17 -122
35 -164 41 -42 5 -113 20 -157 33 -134 39 -267 77 -320 90 -28 7 -77 29 -110
49 -84 52 -214 113 -538 253 -84 36 -372 179 -484 240 -37 20 -93 50 -123 67
-30 16 -62 35 -70 42 -8 6 -33 20 -55 30 -22 10 -42 21 -45 25 -3 4 -25 17
-49 30 -25 12 -51 29 -59 36 -7 8 -20 14 -27 14 -8 0 -18 6 -22 12 -4 7 -30
24 -56 38 -27 14 -55 33 -62 43 -7 10 -14 14 -16 9 -2 -5 -35 11 -73 36 -51
33 -65 47 -55 54 10 7 8 7 -8 3 -22 -6 -83 18 -83 33 0 9 -54 38 -87 47 -13 3
-23 11 -23 16 0 5 -7 9 -15 9 -9 0 -18 7 -21 15 -4 8 -11 15 -18 15 -21 0
-118 68 -104 73 7 3 2 6 -11 6 -21 1 -53 20 -114 71 -62 51 -227 222 -222 230
3 6 -1 10 -9 10 -9 0 -16 4 -16 10 0 5 7 7 15 4 8 -4 15 -1 15 5 0 7 -6 14
-14 17 -8 3 -12 12 -9 20 3 9 -2 14 -16 14 -12 0 -38 16 -59 35 l-37 34 33 1
c20 0 31 -4 27 -10 -10 -16 21 -23 44 -10 28 14 18 30 -19 30 -16 0 -30 7 -34
16 -4 10 -13 13 -28 9 -22 -6 -22 -5 3 18 17 15 24 29 19 37 -4 7 -5 20 -3 30
4 13 -2 19 -19 22 -18 2 -23 9 -21 30 1 20 -4 28 -22 32 -26 7 -41 36 -25 46
8 5 8 9 -2 12 -20 7 -39 -2 -31 -15 4 -7 -1 -6 -10 2 -10 7 -17 19 -16 25 3
29 -2 46 -15 46 -17 0 -27 25 -19 46 3 8 1 25 -5 37 -5 12 -13 30 -16 39 -3
12 -11 16 -23 11 -15 -6 -16 -4 -5 9 10 13 10 17 -4 22 -12 4 -14 13 -9 36 4
18 2 30 -3 30 -6 0 -18 3 -28 7 -13 5 -16 3 -11 -10 3 -9 2 -19 -3 -22 -6 -4
-10 1 -10 10 0 8 -4 24 -10 35 -23 46 -27 57 -43 110 -40 141 -87 382 -92 473
-2 34 -9 82 -14 107 -15 60 -22 503 -11 610 22 202 38 565 35 775 -2 108 1
175 8 183 7 9 7 16 0 23 -8 8 -5 17 8 30 23 23 24 39 4 39 -8 0 -15 7 -15 15
0 8 5 15 10 15 6 0 10 9 10 19 0 10 7 22 16 25 11 4 14 15 9 46 -3 22 -2 56 4
75 8 31 7 37 -9 48 -16 10 -17 14 -6 27 21 22 24 63 6 77 -12 9 -13 14 -2 24
6 7 12 28 12 46 0 19 5 33 12 33 9 0 9 3 0 12 -14 14 -16 72 -3 63 6 -3 9 23
7 65 -1 38 2 71 6 72 11 4 13 48 4 76 -5 14 -3 22 4 22 6 0 8 10 4 24 -3 13
-1 27 5 30 5 4 8 13 4 21 -3 8 0 15 6 15 6 0 11 8 11 18 0 17 4 34 49 197 16
58 22 102 20 165 -1 52 4 110 14 150 53 209 71 350 48 365 -12 7 -49 -32 -56
-59 -22 -83 -29 -107 -46 -151 -11 -27 -17 -36 -14 -20 10 49 31 139 37 155
23 66 32 97 55 180 34 128 53 262 56 397 1 61 5 115 9 118 4 4 3 15 -2 24 -4
9 -13 41 -20 72 -11 56 -11 56 35 148 58 116 66 167 34 210 -24 32 -47 39 -66
20 -14 -14 -53 -2 -53 17 0 10 12 14 40 14 33 0 40 3 40 20 0 11 6 20 14 20
16 0 29 27 16 35 -5 3 -13 -3 -19 -12 -15 -27 -26 -6 -11 21 8 16 18 22 28 19
12 -5 14 -1 10 15 -5 17 -2 22 13 22 10 0 19 7 19 15 0 18 16 20 23 3 4 -8 6
-7 6 4 1 9 -5 19 -11 21 -9 4 -2 15 18 34 17 15 53 56 79 91 26 34 51 62 56
62 4 0 17 16 29 35 12 20 27 41 34 48 32 32 178 275 228 377 66 136 77 161
113 260 15 41 33 89 40 105 7 17 16 46 20 65 4 19 11 40 15 45 4 6 10 27 14
48 4 20 11 37 15 37 5 0 9 11 9 24 0 28 23 86 34 86 5 0 8 16 8 35 0 21 5 35
13 35 9 0 8 3 -2 9 -10 7 -8 12 10 26 14 10 17 15 7 12 -12 -4 -15 -2 -11 9 3
7 9 14 14 14 5 0 9 7 9 15 0 8 5 15 10 15 6 0 10 4 10 10 0 5 -8 7 -17 4 -17
-5 -17 -5 -1 9 10 8 14 17 10 21 -4 4 2 14 12 22 17 12 17 14 3 20 -26 10 -20
27 8 22 31 -6 33 10 3 21 -18 6 -19 9 -5 14 21 8 22 31 2 47 -16 13 -10 33 8
27 7 -2 17 2 24 9 19 18 16 26 -6 15 -10 -6 -21 -7 -25 -4 -11 11 -6 34 7 32
26 -3 37 2 37 17 0 11 -6 15 -20 11 -24 -6 -37 10 -21 26 9 9 14 8 21 -3 8
-13 10 -13 10 1 0 9 8 20 18 24 16 6 16 8 -3 22 -14 11 -16 17 -7 20 6 3 12
12 12 22 0 9 6 23 12 29 10 10 10 15 -1 22 -12 7 -10 15 12 43 27 36 26 47 -5
47 -25 0 -18 24 8 29 19 3 34 18 34 34 0 5 -4 5 -10 2 -5 -3 -10 -1 -10 4 0 6
5 11 12 11 9 0 9 3 0 12 -7 7 -12 16 -12 22 0 5 3 6 6 3 7 -6 27 27 58 91 21
44 108 185 119 193 5 3 8 9 8 13 -4 31 5 51 40 93 23 26 48 49 55 51 8 2 14 7
14 12 0 5 9 12 20 15 11 3 20 12 20 19 0 24 42 68 58 61 9 -3 13 -3 10 1 -4 3
-1 19 8 35 8 17 10 29 4 29 -5 0 -10 8 -10 18 0 16 -11 25 -62 50 -5 2 -8 -3
-8 -12 0 -9 8 -16 19 -16 11 0 23 -5 27 -11 5 -8 -3 -10 -24 -7 -20 3 -33 0
-36 -9 -8 -19 -33 -16 -48 5 -7 10 -25 22 -40 26 -35 8 -37 26 -3 26 14 0 25
4 25 10 0 5 18 8 40 6 22 -2 43 1 46 5 3 5 -5 9 -17 9 -25 0 -18 12 9 16 9 1
27 6 40 9 19 6 21 4 16 -11 -4 -13 4 -8 25 14 18 17 42 32 54 32 12 0 35 7 51
15 15 8 33 15 38 15 5 0 23 9 39 21 16 11 41 22 55 25 27 5 107 51 112 65 2 5
14 9 27 9 14 0 29 9 35 20 6 11 20 20 31 20 30 0 127 61 133 83 2 10 9 16 15
12 6 -3 17 -3 24 2 6 4 14 8 17 9 37 11 50 18 50 25 0 5 17 17 39 28 21 11 41
27 44 36 4 8 15 15 25 15 10 0 32 13 48 30 16 16 37 30 47 30 10 0 16 4 12 9
-10 17 63 25 83 10 16 -13 16 -12 0 7 -17 20 -17 21 25 49 23 15 53 29 67 31
71 9 145 30 146 42 2 27 4 32 14 32 6 0 9 -3 8 -7 -5 -14 6 -15 35 -4 36 14
44 14 50 -1 4 -8 6 -7 6 3 1 19 41 32 65 23 9 -3 22 -2 29 4 6 5 37 13 67 17
30 4 65 11 78 16 16 6 22 5 22 -5 0 -9 -8 -12 -22 -9 -23 4 -23 4 -3 -12 19
-15 20 -14 29 5 7 16 18 20 61 20 28 0 55 4 61 9 5 6 34 14 64 20 117 21 165
33 175 42 5 5 17 9 27 9 10 0 67 12 126 26 93 24 127 27 263 27 86 -1 174 -4
196 -8 56 -9 82 14 90 83 4 41 2 56 -11 70 -9 10 -13 22 -9 25 3 4 -772 6
-1723 5 -1720 -3 -1729 -3 -1732 -23 -2 -11 -36 -54 -76 -95 -61 -64 -111
-119 -170 -190 -102 -123 -107 -128 -145 -134 -36 -5 -39 -9 -51 -53 -23 -91
-31 -111 -47 -125 -13 -10 -17 -10 -20 0 -3 6 -11 12 -19 12 -9 0 -12 5 -8 12
4 6 7 26 6 45 -1 23 3 33 13 33 8 0 15 9 15 20 0 12 7 20 16 20 12 0 14 4 7
13 -18 22 -12 76 10 83 14 4 16 9 8 17 -15 15 -14 55 2 60 6 2 5 3 -4 2 -9 -1
-23 1 -30 6 -11 7 -10 9 4 9 11 0 17 8 17 25 0 18 -5 25 -20 25 -24 0 -26 16
-4 28 13 7 14 11 2 23 -8 8 -14 25 -15 38 -2 19 2 22 22 19 16 -4 22 -1 18 9
-3 7 0 13 6 13 18 0 12 20 -6 21 -14 0 -12 3 5 10 13 5 20 14 17 20 -4 6 3 21
15 34 l23 24 -126 0 -125 0 -16 -67z m4944 38 c0 -5 -2 -10 -4 -10 -3 0 -8 5
-11 10 -3 6 -1 10 4 10 6 0 11 -4 11 -10z m-105 -10 c3 -5 1 -10 -4 -10 -6 0
-11 5 -11 10 0 6 2 10 4 10 3 0 8 -4 11 -10z m-151 -46 c3 -8 2 -12 -4 -9 -6
3 -10 10 -10 16 0 14 7 11 14 -7z m541 -63 c8 -13 -28 -23 -51 -14 -17 6 -17
8 6 14 36 10 38 10 45 0z m245 -25 c0 -8 -4 -18 -10 -21 -5 -3 -10 3 -10 14 0
12 5 21 10 21 6 0 10 -6 10 -14z m-120 -26 c0 -5 -4 -10 -10 -10 -5 0 -10 5
-10 10 0 6 5 10 10 10 6 0 10 -4 10 -10z m230 -4 c0 -3 -4 -8 -10 -11 -5 -3
-10 -1 -10 4 0 6 5 11 10 11 6 0 10 -2 10 -4z m-2825 -36 c-3 -5 -10 -10 -16
-10 -5 0 -9 5 -9 10 0 6 7 10 16 10 8 0 12 -4 9 -10z m-1008 -466 c-3 -3 -12
-4 -19 -1 -8 3 -5 6 6 6 11 1 17 -2 13 -5z m-1487 -64 c9 -17 6 -25 -15 -46
-21 -21 -25 -32 -20 -55 8 -38 0 -37 -19 2 -16 32 -13 49 16 92 23 32 24 33
38 7z m1010 -359 c0 -12 -26 -32 -33 -25 -9 10 4 34 19 34 8 0 14 -4 14 -9z
m68 -54 c6 3 12 0 12 -6 0 -13 -45 -26 -58 -17 -6 3 -8 15 -5 26 5 18 8 19 22
7 9 -8 22 -12 29 -10z m-87 -37 c-24 -20 -51 -27 -51 -12 0 6 41 24 70 30 3 1
-6 -8 -19 -18z m6758 -740 c54 -71 159 -219 178 -253 7 -12 13 -29 13 -38 0
-9 9 -26 19 -38 21 -24 52 -118 72 -218 10 -50 10 -64 0 -77 -11 -14 -16 -13
-42 6 -16 12 -29 27 -29 34 0 6 -7 17 -15 24 -8 7 -15 21 -15 30 0 16 -48 50
-71 50 -12 0 3 -41 17 -47 8 -3 14 -12 14 -20 0 -8 9 -22 20 -31 21 -17 42
-77 42 -119 0 -13 6 -23 14 -23 16 0 18 -12 4 -26 -6 -6 -4 -26 5 -57 8 -26
12 -47 9 -47 -3 0 -2 -6 3 -12 21 -33 -6 -168 -33 -168 -8 0 -17 -6 -19 -12
-2 -7 -10 -26 -16 -43 l-12 -30 -6 30 c-4 17 -13 30 -21 30 -22 1 -41 15 -34
26 3 5 0 17 -7 25 -10 13 -10 17 2 25 10 6 11 9 1 9 -7 0 -10 5 -6 11 4 8 -3
9 -25 4 -35 -8 -37 -4 -15 30 9 13 13 28 10 34 -6 9 10 98 24 136 18 50 30 93
30 113 0 34 -61 31 -94 -5 l-25 -27 -10 27 c-6 15 -16 27 -22 27 -8 0 -8 -4
-1 -13 17 -20 27 -97 13 -97 -6 0 -11 8 -12 18 0 10 -3 12 -6 5 -6 -16 -33
-17 -33 -3 0 6 6 13 14 16 10 4 14 16 11 37 -5 36 2 51 28 60 20 7 44 54 33
64 -4 4 -11 2 -15 -5 -4 -8 -15 -10 -26 -6 -14 6 -17 4 -12 -8 4 -12 -2 -17
-25 -20 -25 -4 -28 -3 -16 6 9 6 17 20 19 31 3 14 14 21 37 23 17 2 32 7 32
12 0 5 -7 7 -15 4 -9 -4 -15 0 -15 10 0 9 -8 16 -20 16 -25 0 -26 16 -2 29 13
7 23 6 30 -1 17 -17 25 -3 18 27 -4 16 -13 25 -26 25 -11 0 -20 7 -20 15 0 8
4 15 10 15 5 0 7 13 3 32 -5 25 -3 30 9 26 8 -4 21 -2 29 3 11 6 11 9 1 9 -7
0 -12 6 -10 13 1 6 -6 29 -16 49 -10 20 -16 45 -14 55 2 10 -5 26 -17 37 -11
10 -15 20 -10 23 36 13 37 19 21 84 -9 35 -21 68 -26 73 -6 6 -10 16 -10 23 0
24 26 2 79 -67z m-49 -160 c0 -5 -2 -10 -4 -10 -3 0 -8 5 -11 10 -3 6 -1 10 4
10 6 0 11 -4 11 -10z m-30 -60 c0 -5 -4 -10 -9 -10 -6 0 -13 5 -16 10 -3 6 1
10 9 10 9 0 16 -4 16 -10z m50 -44 c0 -2 -7 -6 -15 -10 -8 -3 -15 -1 -15 4 0
6 7 10 15 10 8 0 15 -2 15 -4z m-70 -66 c0 -5 -7 -10 -16 -10 -8 0 -12 5 -9
10 3 6 10 10 16 10 5 0 9 -4 9 -10z m30 -40 c0 -5 -4 -10 -9 -10 -6 0 -13 5
-16 10 -3 6 1 10 9 10 9 0 16 -4 16 -10z m12 -42 c-6 -6 -20 -7 -32 -3 -16 5
-19 9 -10 15 17 11 54 0 42 -12z m-92 -198 c0 -5 -7 -10 -15 -10 -8 0 -15 5
-15 10 0 6 7 10 15 10 8 0 15 -4 15 -10z m415 -51 c10 -15 -1 -23 -20 -15 -9
3 -13 10 -10 16 8 13 22 13 30 -1z m15 -39 c0 -5 -7 -10 -15 -10 -8 0 -15 5
-15 10 0 6 7 10 15 10 8 0 15 -4 15 -10z m-7610 -10 c0 -5 -5 -10 -11 -10 -5
0 -7 5 -4 10 3 6 8 10 11 10 2 0 4 -4 4 -10z m5610 -44 c0 -3 -4 -8 -10 -11
-5 -3 -10 -1 -10 4 0 6 5 11 10 11 6 0 10 -2 10 -4z m1675 -6 c3 -5 -1 -10
-10 -10 -9 0 -13 5 -10 10 3 6 8 10 10 10 2 0 7 -4 10 -10z m-51 -17 c4 -5 12
-8 17 -8 15 0 11 -20 -5 -23 -8 -2 -20 6 -26 17 -10 20 -1 29 14 14z m164
-214 c-2 -6 -8 -10 -13 -10 -5 0 -11 4 -13 10 -2 6 4 11 13 11 9 0 15 -5 13
-11z m369 -21 c22 -28 56 -98 51 -103 -8 -8 -58 16 -53 25 3 4 -7 15 -21 25
-20 13 -23 19 -14 30 7 8 9 19 5 25 -9 14 21 13 32 -2z m73 -145 c0 -7 -3 -13
-6 -13 -13 0 -42 21 -47 34 -5 11 0 12 24 3 16 -6 29 -17 29 -24z m-8170 -157
c0 -2 -7 -7 -16 -10 -8 -3 -12 -2 -9 4 6 10 25 14 25 6z m-1906 -50 c-21 -15
-30 -14 -19 3 3 6 14 11 23 11 13 0 13 -2 -4 -14z m1869 -3 c-7 -2 -19 -2 -25
0 -7 3 -2 5 12 5 14 0 19 -2 13 -5z m8365 -144 c-20 -13 -28 -11 -22 5 3 8 12
12 21 9 12 -5 12 -7 1 -14z m5 -44 c-3 -9 1 -15 9 -15 16 0 48 -50 48 -74 0
-9 9 -34 20 -56 11 -22 20 -48 20 -58 0 -11 7 -25 15 -32 8 -7 17 -28 21 -49
6 -35 13 -76 50 -281 9 -52 20 -99 24 -105 5 -5 8 -26 9 -45 0 -19 4 -71 9
-115 11 -103 6 -490 -7 -524 -9 -26 -23 -127 -22 -167 1 -23 -40 -51 -58 -40
-6 4 -11 17 -11 28 0 20 1 20 18 5 23 -21 32 -21 32 -3 0 7 -10 20 -22 28 -18
12 -23 24 -22 62 0 31 -4 46 -13 46 -7 0 -13 5 -13 11 0 7 10 9 25 5 18 -5 25
-2 25 9 0 8 -9 15 -20 15 -11 0 -20 6 -20 14 0 8 -6 17 -12 19 -7 3 -2 6 11 6
20 1 22 3 10 17 -16 19 -18 47 -9 91 7 28 4 36 -13 48 -15 11 -22 27 -23 52
-2 42 -27 66 -58 57 -19 -5 -19 -4 2 11 13 9 29 15 36 12 24 -9 35 7 20 27
-12 17 -14 18 -14 3 0 -21 -23 -22 -40 -2 -6 8 -14 31 -17 52 -4 34 -2 40 20
52 21 11 25 20 23 46 -2 18 -6 37 -10 44 -5 7 -1 20 8 30 23 26 20 31 -16 29
-25 -2 -33 1 -33 14 0 10 -6 23 -13 30 -9 9 -15 8 -26 -7 -9 -13 -19 -16 -32
-11 -16 7 -14 10 20 28 27 14 41 17 49 9 19 -19 29 -12 23 14 -5 20 -3 25 13
25 22 0 47 25 32 34 -5 3 -16 3 -25 0 -28 -11 -17 7 30 51 27 26 41 46 35 50
-6 3 -15 3 -21 0 -5 -3 -10 1 -10 9 0 9 -4 16 -10 16 -16 0 -12 30 5 36 22 9
18 23 -8 35 -18 8 -22 17 -19 40 2 16 9 29 14 29 6 0 7 8 3 18 -4 9 -9 28 -10
41 -2 13 -8 28 -14 34 -7 7 -7 16 0 29 7 14 6 18 -6 18 -21 0 -19 17 5 30 16
9 18 15 10 30 -6 11 -16 17 -25 14 -20 -8 -19 5 1 27 15 17 15 21 1 51 -12 23
-17 27 -17 14 0 -31 -13 -9 -17 30 -2 22 0 33 6 29 6 -3 8 -12 4 -20z m-8593
-125 c0 -5 -4 -10 -10 -10 -5 0 -10 5 -10 10 0 6 5 10 10 10 6 0 10 -4 10 -10z
m6479 -354 c14 -3 28 -10 31 -17 4 -6 26 -13 49 -16 49 -7 53 -20 10 -35 -20
-7 -27 -13 -19 -18 9 -5 7 -13 -6 -29 -10 -11 -23 -21 -30 -21 -6 0 -19 -9
-30 -21 -51 -57 -220 -107 -315 -94 -35 5 -55 2 -85 -13 -47 -24 -94 -36 -94
-24 0 5 11 24 24 43 29 41 80 125 116 194 24 46 29 51 70 57 49 7 241 3 279
-6z m-423 -90 c-52 -96 -60 -109 -74 -124 -7 -8 -19 -26 -26 -40 -17 -33 -44
-58 -73 -66 -32 -10 -29 2 18 59 22 28 46 57 52 65 7 8 37 52 66 97 63 95 88
101 37 9z m-63 27 c-20 -60 -224 -293 -254 -293 -11 0 -47 -11 -81 -25 -34
-14 -69 -25 -77 -25 -9 0 -37 -11 -63 -25 -27 -14 -50 -25 -53 -25 -26 1 -35
-2 -47 -13 -37 -36 -88 -68 -99 -61 -8 4 -9 3 -5 -4 8 -14 4 -15 -18 -6 -9 3
-16 12 -16 18 0 14 232 244 295 293 48 37 212 123 235 123 9 0 20 3 24 8 10
10 126 50 148 51 12 1 16 -4 11 -16z m-6043 -23 c0 -5 -5 -10 -11 -10 -5 0 -7
5 -4 10 3 6 8 10 11 10 2 0 4 -4 4 -10z m8390 -20 c0 -14 -39 -32 -52 -24 -7
5 -5 11 7 21 22 15 45 17 45 3z m-140 -20 c0 -5 -5 -10 -11 -10 -5 0 -7 5 -4
10 3 6 8 10 11 10 2 0 4 -4 4 -10z m-1530 -8 c0 -9 -62 -34 -68 -27 -7 7 9 25
19 20 5 -4 17 -1 26 4 22 13 23 13 23 3z m1730 -42 c0 -10 5 -22 10 -25 6 -3
10 -11 10 -18 0 -8 -3 -8 -11 0 -8 8 -20 7 -45 -5 -18 -9 -34 -20 -34 -24 0
-13 14 -9 40 9 17 12 25 13 28 5 2 -7 10 -12 18 -12 9 0 12 -4 9 -10 -3 -5
-16 -10 -27 -10 -29 0 -20 -6 20 -13 24 -5 32 -3 32 8 0 17 18 19 40 5 11 -7
8 -11 -15 -20 -15 -6 -35 -8 -43 -5 -10 3 -12 0 -9 -10 4 -8 2 -17 -3 -20 -7
-4 -7 -13 0 -24 6 -12 5 -22 -3 -31 -9 -10 -9 -11 1 -5 8 4 13 2 11 -6 -4 -32
1 -43 13 -31 17 17 68 15 68 -2 0 -8 -4 -17 -9 -20 -10 -7 -9 -25 3 -44 5 -8
2 -18 -7 -25 -9 -7 -17 -30 -19 -52 -3 -37 -5 -40 -36 -43 -29 -3 -33 0 -38
27 -5 21 -12 31 -25 31 -28 0 -31 16 -4 28 31 14 31 26 3 46 -25 18 -68 21
-68 6 0 -5 -8 -10 -19 -10 -15 0 -19 8 -19 40 0 22 -4 45 -7 50 -4 6 1 22 9
35 11 16 12 25 5 25 -7 0 -9 8 -4 23 4 12 7 29 7 39 -1 9 8 18 19 21 12 3 19
14 19 29 0 13 9 31 20 41 17 14 20 14 20 2 0 -8 5 -15 11 -15 6 0 9 6 6 14 -3
8 -3 17 0 20 10 9 23 -4 23 -24z m35 0 c-5 -8 -11 -8 -17 -2 -6 6 -7 16 -3 22
5 8 11 8 17 2 6 -6 7 -16 3 -22z m-1245 -1 c0 -14 -62 -49 -87 -49 -36 0 -27
16 25 43 46 24 62 26 62 6z m1288 -6 c-2 -19 -10 -29 -23 -31 -16 -3 -18 -1
-7 9 6 7 12 21 12 31 0 10 5 18 11 18 6 0 9 -12 7 -27z m-8523 7 c-3 -5 -13
-10 -21 -10 -8 0 -12 5 -9 10 3 6 13 10 21 10 8 0 12 -4 9 -10z m8225 6 c0 -3
-4 -8 -10 -11 -5 -3 -10 -1 -10 4 0 6 5 11 10 11 6 0 10 -2 10 -4z m105 -29
c1 -25 -18 -47 -39 -47 -14 0 -5 30 11 39 16 8 14 10 -10 16 -37 10 -34 27 5
23 27 -3 32 -7 33 -31z m265 17 c0 -9 -7 -14 -17 -12 -25 5 -28 28 -4 28 12 0
21 -6 21 -16z m-1960 -9 c0 -8 -9 -15 -19 -15 -11 0 -23 -4 -26 -10 -9 -15
-35 -12 -35 5 0 17 28 34 58 35 13 0 22 -6 22 -15z m-6635 -26 c-8 -12 -35
-12 -35 0 0 11 22 20 33 14 4 -2 5 -9 2 -14z m6545 -9 c0 -5 -4 -10 -10 -10
-5 0 -10 5 -10 10 0 6 5 10 10 10 6 0 10 -4 10 -10z m1650 -5 c0 -8 -9 -15
-20 -15 -22 0 -27 15 -7 23 21 9 27 7 27 -8z m60 -5 c0 -5 -4 -10 -10 -10 -5
0 -10 5 -10 10 0 6 5 10 10 10 6 0 10 -4 10 -10z m-1575 -10 c-3 -5 -10 -10
-16 -10 -5 0 -9 5 -9 10 0 6 7 10 16 10 8 0 12 -4 9 -10z m-6720 -27 c-11 -46
-25 -51 -25 -10 0 27 4 37 16 37 13 0 15 -6 9 -27z m8575 -35 c0 -6 7 -19 15
-28 30 -34 -18 -78 -50 -46 -14 13 -13 16 7 27 21 11 21 12 2 26 -16 12 -17
15 -4 23 20 13 30 12 30 -2z m127 -45 c-2 -34 -8 -49 -19 -51 -9 -2 -19 2 -23
7 -3 6 -1 11 4 11 6 0 11 5 11 10 0 6 -7 10 -15 10 -8 0 -15 5 -15 10 0 6 6
10 14 10 7 0 16 9 19 20 3 11 10 20 17 20 7 0 10 -16 7 -47z m-8867 -14 c0 -5
-9 -9 -19 -9 -14 0 -18 5 -14 20 4 16 8 18 19 9 8 -6 14 -15 14 -20z m40 27
c0 -11 -19 -15 -25 -6 -3 5 1 10 9 10 9 0 16 -2 16 -4z m-90 -16 c0 -5 -4 -10
-10 -10 -5 0 -10 5 -10 10 0 6 5 10 10 10 6 0 10 -4 10 -10z m-1952 -54 c-1
-14 -6 -22 -10 -20 -12 7 -10 44 2 44 5 0 9 -11 8 -24z m10812 14 c0 -5 -7
-10 -15 -10 -8 0 -15 5 -15 10 0 6 7 10 15 10 8 0 15 -4 15 -10z m-10827 -82
c-3 -13 -10 -28 -15 -35 -5 -7 -7 -17 -3 -23 4 -6 4 -19 0 -28 -6 -15 -8 -14
-16 7 -7 17 -4 35 8 62 18 42 34 53 26 17z m8599 -8 c-1 -14 -11 -41 -21 -60
-10 -19 -26 -51 -36 -70 -10 -19 -36 -54 -57 -78 -22 -24 -49 -64 -60 -88
l-19 -45 -202 2 c-257 4 -264 6 -178 53 31 16 61 43 79 71 26 40 29 52 26 101
-2 31 -7 60 -9 65 -12 19 86 44 205 53 19 2 42 6 50 9 19 8 99 14 170 13 53
-1 55 -2 52 -26z m166 0 c34 -16 68 -30 77 -30 10 0 30 -10 46 -22 16 -13 42
-33 58 -45 16 -13 39 -23 50 -23 12 0 38 -15 58 -33 21 -19 56 -44 79 -56 47
-26 72 -60 54 -71 -7 -4 -54 -10 -106 -14 -51 -4 -108 -12 -126 -17 -107 -31
-419 -52 -433 -29 -4 6 17 36 46 68 61 66 110 163 116 230 5 51 10 72 17 72 2
0 31 -13 64 -30z m-6828 5 c0 -8 -7 -15 -15 -15 -16 0 -20 12 -8 23 11 12 23
8 23 -8z m55 -5 c3 -5 1 -10 -4 -10 -6 0 -11 5 -11 10 0 6 2 10 4 10 3 0 8 -4
11 -10z m8618 -14 c3 -8 3 -27 1 -44 -3 -21 0 -31 11 -35 19 -8 20 -27 0 -27
-8 0 -15 7 -15 16 0 9 -8 14 -17 13 -10 -1 -27 -1 -37 0 -20 1 -20 1 0 15 18
14 18 15 2 21 -21 8 -24 41 -5 48 24 10 55 7 60 -7z m307 -102 c0 -8 -4 -12
-10 -9 -5 3 -10 10 -10 16 0 5 5 9 10 9 6 0 10 -7 10 -16z m-204 -29 c13 -12
12 -15 -5 -25 -22 -12 -36 1 -27 25 7 19 14 19 32 0z m-61 -15 c3 -5 3 -10 -2
-10 -4 0 -18 -3 -30 -6 -17 -5 -23 -2 -23 10 0 18 45 23 55 6z m305 -60 c0 -5
-5 -10 -11 -10 -5 0 -7 5 -4 10 3 6 8 10 11 10 2 0 4 -4 4 -10z m-3197 -55
c50 -47 73 -54 107 -33 15 10 22 10 32 0 24 -24 -6 -30 -112 -21 -58 5 -114
11 -125 13 -11 3 -37 5 -58 5 -23 1 -36 5 -32 11 3 6 12 10 20 10 8 0 26 11
40 24 15 14 36 27 48 29 12 2 24 5 27 6 3 0 27 -19 53 -44z m1247 -155 c-20
-13 -43 -13 -35 0 3 6 16 10 28 10 18 0 19 -2 7 -10z m611 -53 c-1 -4 -1 -14
-1 -22 0 -17 -9 -19 -29 -6 -12 8 -13 12 -1 26 13 15 32 17 31 2z m1421 -149
c-9 -9 -15 -9 -24 0 -9 9 -7 12 12 12 19 0 21 -3 12 -12z m-23 -52 c9 -11 9
-15 0 -18 -7 -2 -13 -27 -14 -59 -1 -30 -5 -61 -10 -69 -5 -8 -8 -23 -7 -32 2
-10 0 -18 -5 -18 -20 1 -30 18 -36 63 -6 44 -5 47 16 48 12 0 16 3 10 6 -19 7
-16 23 5 23 13 1 10 6 -12 22 l-28 21 28 13 c38 16 40 16 53 0z m-89 -325 c0
-6 -4 -13 -10 -16 -5 -3 -10 1 -10 9 0 9 5 16 10 16 6 0 10 -4 10 -9z m-9734
-431 c27 -1 78 -7 114 -16 36 -8 92 -18 126 -23 33 -5 89 -23 123 -40 35 -17
70 -31 79 -31 13 0 13 -2 -3 -14 -18 -13 -18 -14 5 -26 l24 -13 -21 -8 c-25
-9 -45 -80 -24 -87 6 -2 11 -17 11 -33 0 -16 6 -38 13 -49 9 -16 9 -22 0 -28
-7 -4 -10 -31 -8 -72 2 -70 -2 -93 -16 -84 -5 3 -9 0 -9 -5 0 -6 6 -11 13 -11
8 0 9 -2 1 -8 -16 -10 -18 -132 -2 -132 9 -1 9 -4 -2 -13 -8 -7 -15 -28 -16
-47 0 -19 -4 -52 -8 -72 -7 -33 -6 -38 10 -38 14 0 15 -3 6 -9 -7 -4 -16 -21
-21 -37 -9 -36 -22 -37 -39 -2 -18 37 -154 159 -227 204 -63 38 -158 75 -260
100 -151 38 -175 38 -175 5 0 -39 52 -66 210 -112 179 -51 283 -130 354 -272
l39 -77 -12 -63 c-26 -129 -30 -167 -18 -209 16 -52 36 -66 77 -51 22 8 32 8
37 0 3 -6 1 -13 -5 -15 -8 -2 -9 -9 -3 -20 5 -9 7 -34 6 -54 -2 -22 1 -38 7
-38 6 0 5 -7 -3 -16 -10 -12 -10 -20 -1 -34 6 -11 9 -26 6 -35 -7 -18 21 -44
49 -45 9 0 17 -6 17 -13 0 -7 5 -18 11 -24 9 -9 16 -7 28 8 11 14 22 18 34 13
14 -5 15 -9 6 -14 -8 -6 -5 -11 11 -20 12 -6 25 -8 28 -4 4 4 1 9 -5 11 -23 8
-13 23 15 23 24 0 28 4 27 28 0 19 5 27 17 27 10 0 23 6 30 13 9 9 9 12 -1 12
-11 0 -11 3 -1 15 25 30 40 18 35 -27 -2 -24 -9 -119 -15 -213 -8 -121 -16
-174 -26 -185 -12 -12 -14 -12 -14 3 0 10 -4 15 -10 12 -5 -3 -10 0 -10 8 0 8
-6 20 -13 26 -8 6 -14 25 -15 42 -1 39 -26 69 -53 62 -30 -8 -57 -49 -55 -83
2 -25 -1 -29 -16 -24 -11 3 -20 -1 -24 -10 -4 -9 -14 -15 -23 -14 -11 2 -17
-5 -19 -24 -2 -14 -10 -32 -19 -39 -13 -12 -14 -5 -9 56 4 39 12 85 17 103 14
41 -20 158 -59 204 -15 18 -26 39 -24 48 2 15 -95 110 -112 110 -7 0 -136 63
-183 89 -66 37 -150 107 -241 199 -167 171 -241 300 -242 422 0 85 20 221 36
240 12 15 36 90 28 90 -3 0 2 14 11 30 9 17 19 30 24 30 5 0 12 15 15 33 4 17
9 45 13 60 3 15 16 33 31 41 17 9 21 15 13 21 -9 5 -7 11 8 22 12 8 18 19 15
25 -4 6 -1 16 7 22 20 15 41 59 37 77 -2 7 3 13 10 12 6 -2 12 2 12 8 0 17 63
79 80 79 8 0 21 9 28 21 l13 21 23 -21 c16 -15 36 -21 72 -21z m844 -454 c0
-11 -19 -15 -25 -6 -3 5 1 10 9 10 9 0 16 -2 16 -4z m8842 -108 c-6 -6 -19 -7
-29 -3 -17 7 -17 8 2 15 24 9 41 2 27 -12z m-4 -139 c-2 -6 -8 -10 -13 -10 -5
0 -11 4 -13 10 -2 6 4 11 13 11 9 0 15 -5 13 -11z m147 -149 c3 -5 1 -10 -4
-10 -6 0 -11 5 -11 10 0 6 2 10 4 10 3 0 8 -4 11 -10z m142 -16 c-3 -3 -12 -4
-19 -1 -8 3 -5 6 6 6 11 1 17 -2 13 -5z m-9147 -74 c0 -5 -4 -10 -10 -10 -5 0
-10 5 -10 10 0 6 5 10 10 10 6 0 10 -4 10 -10z m-2542 -591 c3 -17 -43 -43
-59 -34 -5 4 -9 2 -9 -3 0 -16 -68 -43 -108 -44 -84 -2 -93 7 -34 35 138 65
203 80 210 46z m1903 -169 c22 -46 33 -110 19 -110 -6 0 -15 11 -20 25 -5 14
-16 25 -25 25 -8 0 -18 12 -21 28 -4 15 -14 36 -23 46 -9 11 -11 16 -4 13 6
-4 15 -3 18 3 12 20 40 5 56 -30z m9534 -180 c3 -5 1 -10 -4 -10 -6 0 -11 5
-11 10 0 6 2 10 4 10 3 0 8 -4 11 -10z m-15 -54 c0 -3 -4 -8 -10 -11 -5 -3
-10 -1 -10 4 0 6 5 11 10 11 6 0 10 -2 10 -4z m-9106 -21 c-4 -8 -8 -15 -10
-15 -2 0 -4 7 -4 15 0 8 4 15 10 15 5 0 7 -7 4 -15z m-224 -95 c0 -5 -5 -10
-11 -10 -5 0 -7 5 -4 10 3 6 8 10 11 10 2 0 4 -4 4 -10z m287 -817 c-3 -10 -5
-4 -5 12 0 17 2 24 5 18 2 -7 2 -21 0 -30z m43 -190 c0 -16 -16 -28 -34 -28
-25 0 -32 22 -9 28 29 8 43 7 43 0z m9 -90 c-1 -17 -3 -21 -6 -10 -2 9 -9 17
-14 17 -6 0 -7 5 -4 10 12 19 25 10 24 -17z m-758 -472 c-12 -22 -31 -29 -31
-11 0 6 6 19 12 30 16 26 33 9 19 -19z m-176 -20 c3 -5 1 -12 -5 -16 -5 -3
-10 1 -10 9 0 18 6 21 15 7z m124 -70 c7 -5 10 -14 6 -20 -5 -9 -10 -9 -21 0
-26 22 -14 38 15 20z m-39 -41 c0 -5 -4 -10 -10 -10 -5 0 -10 5 -10 10 0 6 5
10 10 10 6 0 10 -4 10 -10z m-50 -20 c0 -5 -5 -10 -11 -10 -5 0 -7 5 -4 10 3
6 8 10 11 10 2 0 4 -4 4 -10z m65 -40 c3 -5 1 -10 -4 -10 -6 0 -11 5 -11 10 0
6 2 10 4 10 3 0 8 -4 11 -10z m-40 -10 c-3 -5 -10 -10 -16 -10 -5 0 -9 5 -9
10 0 6 7 10 16 10 8 0 12 -4 9 -10z m1333 -16 c6 -7 12 -15 12 -18 0 -8 -39
-7 -68 0 -17 5 -20 10 -12 20 14 15 50 14 68 -2z m-1298 -8 c0 -3 -4 -8 -10
-11 -5 -3 -10 -1 -10 4 0 6 5 11 10 11 6 0 10 -2 10 -4z m-15 -46 c3 -5 1 -10
-4 -10 -6 0 -11 5 -11 10 0 6 2 10 4 10 3 0 8 -4 11 -10z m-1285 -426 c0 -13
-4 -24 -10 -24 -5 0 -10 4 -10 9 0 5 -14 11 -31 15 -18 3 -28 10 -24 17 4 6
18 8 31 5 14 -4 24 -2 24 4 0 6 5 8 10 5 6 -3 10 -17 10 -31z m54 -29 c3 -8
15 -15 27 -15 l22 0 -23 -25 c-13 -14 -32 -25 -42 -25 -11 0 -17 -4 -14 -9 8
-13 -4 -42 -15 -35 -15 9 -49 -6 -49 -22 0 -8 -6 -14 -14 -14 -8 0 -16 -10
-18 -22 -2 -19 -12 -24 -57 -31 -36 -6 -57 -5 -64 2 -8 8 -6 11 6 11 37 0 14
18 -31 24 -57 7 -85 38 -53 58 16 10 17 14 5 25 -20 21 -17 33 9 34 16 1 18 2
5 6 -20 5 -24 18 -9 28 5 3 13 0 16 -6 4 -5 13 -8 21 -5 21 8 77 -14 98 -38
13 -14 20 -17 23 -8 3 6 11 12 18 12 7 0 20 11 28 24 12 18 22 22 43 18 18 -3
29 0 36 12 11 20 24 21 32 1z m11070 -174 c7 -11 -41 -24 -56 -15 -8 5 -5 10
8 15 27 11 42 11 48 0z m64 -8 c-10 -2 -26 -2 -35 0 -10 3 -2 5 17 5 19 0 27
-2 18 -5z m-218 -483 c11 -7 7 -10 -18 -10 -20 0 -31 4 -27 10 8 13 26 13 45
0z m-7145 -30 c3 -5 -1 -10 -9 -10 -9 0 -16 5 -16 10 0 6 4 10 9 10 6 0 13 -4
16 -10z m7555 -105 c-7 -8 -17 -15 -22 -15 -6 0 -5 7 2 15 7 8 17 15 22 15 6
0 5 -7 -2 -15z m-110 -51 c0 -2 -7 -4 -15 -4 -8 0 -15 4 -15 10 0 5 7 7 15 4
8 -4 15 -8 15 -10z m-7199 -251 c28 -27 58 -47 67 -45 9 2 13 -2 9 -10 -3 -9
3 -14 16 -15 11 -1 25 -7 30 -12 14 -14 20 -74 7 -66 -6 4 -8 11 -5 16 4 5 -3
9 -14 9 -13 0 -21 7 -21 16 0 11 -6 15 -19 11 -24 -6 -46 8 -46 30 0 12 -12
20 -38 26 -26 6 -42 18 -53 38 -14 29 -12 49 6 49 5 0 32 -21 61 -47z m66 -15
c-3 -8 -6 -5 -6 6 -1 11 2 17 5 13 3 -3 4 -12 1 -19z m343 -18 c0 -5 -5 -10
-11 -10 -5 0 -7 5 -4 10 3 6 8 10 11 10 2 0 4 -4 4 -10z m-80 -26 c0 -8 -5
-12 -10 -9 -6 4 -8 11 -5 16 9 14 15 11 15 -7z m-120 -4 c0 -5 -5 -10 -11 -10
-5 0 -7 5 -4 10 3 6 8 10 11 10 2 0 4 -4 4 -10z m40 -69 c0 -6 -4 -13 -10 -16
-5 -3 -10 1 -10 9 0 9 5 16 10 16 6 0 10 -4 10 -9z m-79 -24 c-6 -8 -8 -17 -4
-20 3 -4 -1 -7 -10 -7 -20 0 -21 6 -4 25 15 18 33 20 18 2z m509 -37 c0 -5 -7
-10 -16 -10 -8 0 -12 5 -9 10 3 6 10 10 16 10 5 0 9 -4 9 -10z m-452 -35 c-3
-3 -9 2 -12 12 -6 14 -5 15 5 6 7 -7 10 -15 7 -18z m562 -75 c0 -5 -5 -10 -11
-10 -5 0 -7 5 -4 10 3 6 8 10 11 10 2 0 4 -4 4 -10z m-353 -36 c0 -6 -9 -9
-19 -6 -28 7 -32 22 -5 20 13 -1 24 -7 24 -14z m348 -13 c-3 -6 -11 -11 -17
-11 -6 0 -6 6 2 15 14 17 26 13 15 -4z m-1870 -51 c3 -5 -1 -10 -10 -10 -9 0
-13 5 -10 10 3 6 8 10 10 10 2 0 7 -4 10 -10z m2085 -50 c0 -5 -4 -10 -10 -10
-5 0 -10 5 -10 10 0 6 5 10 10 10 6 0 10 -4 10 -10z m-252 -18 c2 -7 -6 -12
-17 -12 -21 0 -27 11 -14 24 9 9 26 2 31 -12z m-3773 -1 c3 -5 1 -12 -5 -16
-5 -3 -10 1 -10 9 0 18 6 21 15 7z m3685 -21 c0 -5 -4 -10 -10 -10 -5 0 -10 5
-10 10 0 6 5 10 10 10 6 0 10 -4 10 -10z m330 6 c0 -11 -19 -15 -25 -6 -3 5 1
10 9 10 9 0 16 -2 16 -4z m115 -21 c0 -14 -3 -25 -7 -25 -10 0 -10 34 -1 43 3
4 7 7 7 7 1 0 1 -11 1 -25z m5825 -6 c0 -5 -4 -9 -10 -9 -5 0 -10 7 -10 16 0
8 5 12 10 9 6 -3 10 -10 10 -16z m-9945 1 c3 -5 1 -10 -4 -10 -6 0 -11 5 -11
10 0 6 2 10 4 10 3 0 8 -4 11 -10z m3845 -10 c8 -5 11 -10 5 -10 -5 0 -17 5
-25 10 -8 5 -10 10 -5 10 6 0 17 -5 25 -10z m-5590 -37 c0 -26 -23 -83 -33
-84 -7 0 -20 -2 -29 -4 -10 -2 -18 3 -18 11 0 8 4 14 9 14 5 0 19 16 31 35 20
32 40 46 40 28z m3930 -43 c13 -8 13 -10 -2 -10 -9 0 -20 5 -23 10 -8 13 5 13
25 0z m-15 -30 c3 -5 17 -10 30 -10 13 0 27 -5 30 -11 5 -7 -8 -9 -36 -7 -32
2 -45 8 -47 21 -4 18 13 24 23 7z m150 0 c3 -5 1 -10 -4 -10 -6 0 -11 5 -11
10 0 6 2 10 4 10 3 0 8 -4 11 -10z m65 0 c0 -5 -4 -10 -10 -10 -5 0 -10 5 -10
10 0 6 5 10 10 10 6 0 10 -4 10 -10z m-100 -25 c0 -8 4 -15 8 -15 16 0 52 -37
52 -54 0 -9 -7 -16 -15 -16 -8 0 -15 5 -15 11 0 5 -5 7 -10 4 -6 -3 -13 1 -16
10 -6 13 -8 14 -18 1 -8 -10 -22 -13 -50 -8 -42 8 -62 32 -27 32 12 0 21 -4
21 -10 0 -5 5 -10 11 -10 6 0 8 9 4 20 -5 15 -2 20 13 20 11 0 23 -6 25 -12 3
-8 6 -6 6 5 1 9 -4 17 -10 17 -5 0 -7 5 -4 10 9 15 25 12 25 -5z m-4116 -34
c8 -13 -3 -19 -24 -14 -11 3 -17 9 -14 14 7 11 31 12 38 0z m4256 -57 c0 -8
-6 -14 -14 -14 -8 0 -22 -10 -30 -21 -13 -20 -16 -20 -30 -6 -20 20 -20 27 -1
27 8 0 15 6 15 14 0 8 10 16 23 18 28 5 37 1 37 -18z m110 12 c0 -3 -4 -8 -10
-11 -5 -3 -10 -1 -10 4 0 6 5 11 10 11 6 0 10 -2 10 -4z m-85 -16 c3 -5 1 -10
-4 -10 -6 0 -11 5 -11 10 0 6 2 10 4 10 3 0 8 -4 11 -10z m-125 -8 c0 -13 -12
-22 -22 -16 -10 6 -1 24 13 24 5 0 9 -4 9 -8z m-2990 -68 c0 -8 -4 -14 -10
-14 -5 0 -10 9 -10 21 0 11 5 17 10 14 6 -3 10 -13 10 -21z m3161 13 c-1 -12
-15 -9 -19 4 -3 6 1 10 8 8 6 -3 11 -8 11 -12z m54 3 c-3 -5 -13 -10 -21 -10
-8 0 -14 5 -14 10 0 6 9 10 21 10 11 0 17 -4 14 -10z m55 -34 c0 -10 -9 -13
-27 -11 -40 5 -40 5 -18 15 30 13 45 12 45 -4z m58 -3 c-2 -10 -14 -19 -26
-21 -21 -3 -22 -2 -10 17 16 25 41 28 36 4z m122 -13 c0 -4 -8 -10 -19 -13
-14 -3 -17 0 -14 14 5 17 33 16 33 -1z"/>
<path d="M11310 9921 c0 -6 5 -13 10 -16 6 -3 10 1 10 9 0 9 -4 16 -10 16 -5
0 -10 -4 -10 -9z"/>
<path d="M11280 9689 c0 -5 5 -7 10 -4 6 3 10 8 10 11 0 2 -4 4 -10 4 -5 0
-10 -5 -10 -11z"/>
<path d="M12020 8070 c-12 -8 -11 -10 8 -10 12 0 22 5 22 10 0 13 -11 13 -30
0z"/>
<path d="M11985 7820 c-8 -13 4 -32 16 -25 12 8 12 35 0 35 -6 0 -13 -4 -16
-10z"/>
<path d="M12060 7640 c0 -5 4 -10 9 -10 6 0 13 5 16 10 3 6 -1 10 -9 10 -9 0
-16 -4 -16 -10z"/>
<path d="M11672 7876 c-7 -16 -11 -31 -8 -33 7 -8 56 28 55 41 0 7 -2 6 -6 -1
-7 -18 -21 -16 -25 4 -2 12 -6 10 -16 -11z"/>
<path d="M2716 4676 c21 -15 30 -14 19 3 -3 6 -14 11 -23 11 -13 0 -13 -2 4
-14z"/>
<path d="M890 1960 c0 -5 5 -10 10 -10 6 0 10 5 10 10 0 6 -4 10 -10 10 -5 0
-10 -4 -10 -10z"/>
<path d="M780 1930 c0 -5 5 -10 11 -10 5 0 7 5 4 10 -3 6 -8 10 -11 10 -2 0
-4 -4 -4 -10z"/>
<path d="M605 1870 c3 -5 12 -10 20 -10 8 0 17 5 20 10 4 6 -5 10 -20 10 -15
0 -24 -4 -20 -10z"/>
<path d="M7999 12181 c9 -6 10 -11 2 -15 -16 -11 -13 -26 4 -20 21 9 19 44 -2
44 -14 0 -15 -2 -4 -9z"/>
<path d="M8560 12019 c0 -5 5 -7 10 -4 6 3 10 8 10 11 0 2 -4 4 -10 4 -5 0
-10 -5 -10 -11z"/>
<path d="M6128 11903 c7 -3 16 -2 19 1 4 3 -2 6 -13 5 -11 0 -14 -3 -6 -6z"/>
<path d="M6025 11860 c3 -5 12 -7 20 -3 21 7 19 13 -6 13 -11 0 -18 -4 -14
-10z"/>
<path d="M5815 11810 c4 -6 11 -8 16 -5 14 9 11 15 -7 15 -8 0 -12 -5 -9 -10z"/>
<path d="M10195 11660 c3 -5 8 -10 11 -10 2 0 4 5 4 10 0 6 -5 10 -11 10 -5 0
-7 -4 -4 -10z"/>
<path d="M0 11580 c0 -30 13 -40 25 -19 4 5 18 14 31 19 37 14 29 30 -16 30
-38 0 -40 -2 -40 -30z"/>
<path d="M4795 11220 c4 -6 11 -8 16 -5 14 9 11 15 -7 15 -8 0 -12 -5 -9 -10z"/>
<path d="M7670 10886 c0 -2 8 -10 18 -17 15 -13 16 -12 3 4 -13 16 -21 21 -21
13z"/>
<path d="M42 9997 c-23 -24 -42 -51 -42 -60 0 -16 3 -15 29 4 30 22 69 84 60
93 -3 3 -24 -14 -47 -37z"/>
<path d="M4880 9562 c-36 -20 -99 -59 -140 -87 -41 -27 -85 -56 -98 -62 -57
-30 -267 -211 -354 -305 -133 -143 -185 -206 -191 -229 -8 -32 6 -22 79 51
119 122 232 232 256 251 50 39 137 105 158 119 12 8 28 20 34 25 37 33 259
159 308 174 30 10 43 9 73 -3 50 -21 41 -42 -17 -38 -32 3 -48 -1 -58 -13 -21
-26 -4 -44 92 -95 47 -25 91 -50 99 -56 53 -42 284 -144 326 -144 7 0 36 -17
65 -37 28 -21 70 -48 92 -60 53 -30 244 -123 251 -123 4 0 30 -11 59 -25 133
-63 387 -123 559 -132 102 -6 109 -5 132 17 20 19 27 21 39 11 9 -7 18 -21 21
-31 9 -28 36 -33 66 -11 l27 20 22 -30 c27 -35 44 -37 64 -7 26 37 20 100 -29
310 -18 78 -27 86 -54 51 -21 -26 -22 -34 -16 -143 l6 -115 -20 25 c-27 33
-52 149 -39 173 5 10 8 19 6 20 -49 25 -63 36 -66 50 -2 10 3 17 12 17 9 0 16
5 16 10 0 6 -6 10 -13 10 -7 0 -23 9 -35 20 -15 14 -27 18 -43 12 -12 -5 -60
-3 -108 4 -200 28 -341 44 -420 49 -46 3 -88 8 -92 10 -4 3 -56 14 -116 24
-172 30 -295 70 -352 113 -24 18 -25 18 -45 0 -12 -10 -35 -18 -51 -18 -33 1
-115 34 -115 47 0 4 -12 14 -27 22 -16 8 -77 40 -138 71 -60 32 -119 66 -131
77 -11 10 -22 19 -25 18 -2 0 -33 -17 -69 -37z m858 -378 c54 -7 64 -18 35
-39 -14 -11 -23 -10 -45 1 -15 8 -33 14 -41 14 -8 0 -20 7 -27 15 -15 18 -6
19 78 9z m52 -64 c0 -5 -2 -10 -4 -10 -3 0 -8 5 -11 10 -3 6 -1 10 4 10 6 0
11 -4 11 -10z m630 -20 c0 -11 -14 -11 -50 0 -22 7 -21 8 13 9 20 1 37 -3 37
-9z m83 -7 c-7 -2 -21 -2 -30 0 -10 3 -4 5 12 5 17 0 24 -2 18 -5z"/>
<path d="M1863 9530 c-9 -24 -9 -30 2 -30 13 0 25 21 25 46 0 24 -15 15 -27
-16z"/>
<path d="M755 9354 c-27 -19 -70 -48 -95 -66 -25 -18 -63 -45 -85 -59 -123
-79 -296 -341 -384 -583 -36 -98 -17 -73 24 32 62 159 154 304 270 426 33 36
112 95 209 159 53 34 127 112 115 121 -2 1 -26 -12 -54 -30z"/>
<path d="M4130 9319 c-64 -29 -90 -56 -90 -95 0 -46 27 -98 61 -118 16 -9 29
-24 29 -32 0 -27 15 -13 66 59 90 126 96 207 17 207 -21 0 -58 -10 -83 -21z
m19 -130 c-9 -5 -15 -4 -18 2 -2 6 3 15 10 20 9 5 15 4 18 -2 2 -6 -3 -15 -10
-20z"/>
<path d="M4271 8774 c-51 -36 -71 -164 -31 -204 25 -25 45 -25 80 0 32 23 60
76 60 115 0 28 -26 85 -44 97 -18 12 -40 9 -65 -8z m47 -81 c-2 -10 -14 -19
-26 -21 -21 -3 -22 -1 -12 17 13 26 43 28 38 4z"/>
<path d="M8915 8668 c-11 -6 -27 -21 -35 -32 -8 -12 -32 -37 -54 -56 -120
-106 -215 -213 -297 -336 -66 -98 -149 -262 -149 -293 0 -10 -5 -22 -11 -28
-31 -31 -69 -336 -84 -668 -9 -211 -15 -303 -26 -380 -5 -38 -10 -135 -10
-215 1 -314 50 -618 122 -762 16 -32 29 -63 29 -70 0 -7 11 -26 23 -42 33 -41
50 -27 42 32 -10 67 -35 165 -47 179 -53 65 -105 581 -81 809 6 61 14 168 17
237 2 70 7 131 10 135 3 5 6 35 7 66 2 50 5 57 25 62 13 3 22 10 19 14 -3 5
-15 6 -26 3 -21 -6 -22 -4 -16 63 4 38 11 130 18 204 6 74 14 144 19 155 4 11
22 66 40 123 18 56 36 105 41 108 5 3 9 12 9 21 0 17 118 201 153 238 12 13
33 38 47 56 33 42 160 178 184 198 54 43 126 133 126 155 0 9 -12 21 -26 26
-32 13 -44 12 -69 -2z"/>
<path d="M161 8554 c0 -11 3 -14 6 -6 3 7 2 16 -1 19 -3 4 -6 -2 -5 -13z"/>
<path d="M6120 8483 c-14 -15 -34 -44 -45 -63 -10 -19 -27 -44 -37 -55 -10
-11 -21 -31 -24 -45 -3 -14 -9 -36 -13 -50 -5 -14 -6 -40 -3 -58 4 -27 1 -32
-17 -32 -14 0 -22 8 -26 25 -3 14 -7 37 -10 51 -8 38 -29 23 -39 -28 -8 -43
-12 -47 -47 -56 -21 -5 -50 -7 -64 -4 -34 6 -234 -18 -241 -30 -3 -4 -15 -8
-26 -8 -24 0 -123 -27 -150 -41 -9 -5 -31 -6 -47 -3 -26 6 -32 3 -41 -20 -5
-14 -16 -26 -24 -26 -7 0 -19 -7 -26 -15 -9 -11 -22 -14 -46 -9 -27 5 -34 3
-34 -10 0 -23 -7 -21 -90 28 -48 28 -77 40 -82 33 -5 -8 -14 -7 -32 1 -17 7
-26 8 -26 1 0 -5 -10 -1 -22 11 -36 33 -51 26 -31 -15 14 -30 15 -39 3 -76
-11 -33 -12 -54 -2 -112 11 -64 11 -72 -4 -80 -9 -5 -31 -23 -47 -39 -17 -16
-37 -26 -44 -24 -7 3 -13 -1 -13 -9 0 -8 -14 -22 -30 -32 -17 -9 -33 -25 -36
-35 -3 -10 -10 -18 -15 -18 -5 0 -18 -9 -28 -19 -18 -18 -22 -18 -63 -4 -23 9
-64 15 -91 15 -27 -1 -66 7 -90 18 -91 42 -105 13 -19 -41 31 -20 71 -42 89
-48 17 -7 34 -19 37 -26 3 -8 14 -11 28 -8 l23 5 -24 -17 c-23 -17 -25 -17
-37 -1 -8 11 -14 13 -19 7 -3 -6 -1 -11 5 -11 6 0 8 -5 5 -11 -4 -6 -13 -8
-21 -5 -8 3 -14 -1 -14 -11 0 -14 -9 -15 -67 -10 -38 4 -95 14 -128 22 -33 9
-61 12 -62 8 -2 -4 -39 -7 -84 -6 l-81 1 6 -41 c4 -23 10 -45 14 -49 13 -12
136 -58 156 -58 31 0 46 -13 36 -30 -7 -11 -37 -16 -120 -18 -127 -5 -141 -18
-42 -41 34 -8 62 -18 62 -22 0 -4 -16 -22 -35 -40 -19 -19 -35 -39 -35 -46 0
-7 -5 -13 -11 -13 -7 0 -17 -7 -23 -15 -20 -26 -185 -77 -264 -81 -103 -6
-119 -19 -59 -50 28 -15 87 -22 232 -25 11 -1 14 -3 7 -6 -10 -4 -10 -9 3 -23
15 -17 14 -19 -19 -40 -20 -12 -36 -26 -36 -31 0 -6 -17 -17 -37 -25 -21 -8
-46 -19 -57 -25 -10 -6 -35 -20 -55 -31 -84 -48 -298 -152 -324 -157 -25 -5
-27 -8 -14 -25 12 -17 17 -17 53 -6 21 7 120 53 218 101 99 49 191 89 205 89
24 -1 24 -2 -11 -20 -29 -16 -35 -24 -31 -41 9 -33 46 -44 95 -29 52 16 161
22 152 9 -3 -5 2 -9 10 -9 9 0 16 -5 16 -12 0 -9 3 -9 11 -1 7 7 25 9 42 6 23
-5 28 -3 22 7 -5 8 -3 11 6 8 10 -3 13 -20 11 -61 -3 -47 -1 -57 12 -57 9 0
24 16 33 35 17 36 31 43 49 25 12 -12 84 14 84 30 0 5 11 12 25 16 14 3 25 11
25 16 0 6 7 7 16 4 8 -3 22 0 29 7 36 31 46 37 65 37 12 0 18 5 15 10 -3 6 1
10 10 10 9 0 30 9 46 21 16 11 29 17 29 14 0 -3 13 3 29 14 16 12 33 21 37 21
18 0 74 46 74 61 0 10 16 20 48 27 26 7 70 18 97 26 209 60 381 99 620 141 83
14 215 39 295 55 169 33 178 34 375 55 431 46 716 59 925 41 58 -4 114 -8 124
-8 24 1 37 21 30 47 -11 35 -27 46 -60 43 -28 -2 -37 3 -56 32 -17 26 -48 47
-126 85 -93 45 -121 65 -91 65 23 0 128 53 133 67 15 38 -12 41 -103 13 -66
-21 -91 -20 -91 2 0 7 -13 26 -30 41 -16 16 -30 32 -30 37 0 11 20 25 60 40
49 19 58 29 24 30 -16 0 -38 0 -49 1 -11 0 -36 -2 -55 -5 -33 -6 -38 -3 -98
67 -88 102 -120 157 -90 157 12 0 185 126 231 168 49 46 27 60 -23 15 -17 -14
-41 -27 -55 -28 -13 0 -38 -15 -55 -32 -30 -31 -95 -66 -143 -78 -20 -5 -39 2
-84 34 -86 59 -279 121 -383 121 -80 0 -90 6 -90 57 0 50 41 180 72 231 27 43
19 60 -12 25z m-174 -440 c9 -20 16 -48 17 -62 2 -26 1 -26 -83 -32 -55 -4
-128 -19 -204 -42 -79 -24 -124 -33 -135 -27 -33 18 -135 130 -126 138 29 25
265 58 428 61 l88 1 15 -37z m97 -3 c5 -19 14 -41 20 -48 8 -10 7 -16 -4 -23
-26 -17 -37 -9 -53 38 -22 63 -21 75 6 71 15 -2 24 -13 31 -38z m162 25 c28
-4 70 -14 95 -22 63 -20 180 -74 180 -83 0 -13 -32 -21 -94 -25 -32 -3 -64 -9
-72 -16 -8 -6 -21 -8 -31 -4 -10 5 -45 18 -78 29 -54 19 -63 27 -87 71 -35 64
-35 68 5 62 17 -3 55 -9 82 -12z m-835 -95 c11 -11 20 -22 20 -25 0 -3 12 -17
28 -30 24 -22 25 -24 7 -25 -11 0 -49 14 -85 31 l-65 31 24 19 c30 24 46 24
71 -1z m-396 -34 l47 -39 -35 -23 c-42 -29 -52 -30 -66 -5 -12 24 -13 114 -1
109 5 -1 30 -20 55 -42z m1586 -50 c0 -12 -85 -56 -107 -56 -7 0 97 70 104 70
2 0 3 -6 3 -14z m-1415 -41 c17 -7 23 -14 15 -15 -99 -9 -137 0 -88 19 31 13
38 12 73 -4z m1515 -52 c14 -20 31 -43 39 -50 20 -21 6 -28 -57 -28 -45 1 -65
6 -96 27 l-39 27 47 21 c25 12 49 26 52 31 11 18 30 8 54 -28z m-1695 -44 c8
-11 106 -58 145 -69 14 -3 24 -11 23 -16 -1 -5 -28 -24 -62 -42 -55 -31 -68
-34 -168 -37 -77 -3 -109 -1 -115 8 -6 9 -10 8 -18 -3 -8 -12 -10 -11 -10 8 0
13 8 25 18 29 9 4 21 12 25 20 4 7 13 13 20 13 7 0 35 22 62 50 51 50 68 59
80 39z m1116 2 c30 -6 101 -17 159 -27 58 -9 121 -24 140 -34 19 -9 49 -20 65
-24 32 -8 285 -128 425 -202 47 -24 115 -59 152 -77 37 -18 68 -35 68 -39 0
-5 -33 -8 -72 -8 -237 0 -845 -56 -1131 -104 -93 -15 -99 -10 -67 53 11 23 27
83 35 135 14 99 10 153 -19 256 -8 30 -12 58 -8 62 16 15 181 21 253 9z m-864
-37 c-3 -3 -12 -4 -19 -1 -8 3 -5 6 6 6 11 1 17 -2 13 -5z m536 -54 c49 -143
36 -255 -53 -430 l-18 -36 -129 -23 c-70 -12 -163 -31 -205 -42 -43 -10 -95
-22 -115 -25 -21 -3 -86 -19 -146 -35 -59 -16 -116 -29 -126 -29 -11 0 -32 -6
-48 -14 -39 -20 -166 -37 -301 -40 -62 -2 -115 -6 -119 -9 -3 -4 -11 -7 -17
-7 -18 0 48 56 134 112 47 31 104 76 128 102 24 25 58 51 77 58 19 6 35 15 35
19 0 4 9 9 21 12 16 4 26 -4 47 -40 74 -126 122 -149 223 -108 86 35 154 96
175 157 15 47 15 53 -2 106 -9 31 -26 71 -37 89 -24 42 -19 53 34 79 81 40
159 74 170 74 5 0 20 6 32 14 12 7 47 21 77 31 30 10 69 23 85 31 46 20 57 13
78 -46z m1076 -32 c36 -37 28 -45 -26 -28 -83 27 -105 60 -39 60 25 0 42 -9
65 -32z m-2029 -122 c0 -2 -11 -6 -25 -8 -14 -3 -25 -1 -25 3 0 5 11 9 25 9
14 0 25 -2 25 -4z m-505 -176 c3 -5 1 -10 -4 -10 -6 0 -11 5 -11 10 0 6 2 10
4 10 3 0 8 -4 11 -10z m165 -430 c0 -5 -4 -10 -10 -10 -5 0 -10 5 -10 10 0 6
5 10 10 10 6 0 10 -4 10 -10z m-190 -140 c0 -5 -5 -10 -11 -10 -5 0 -7 5 -4
10 3 6 8 10 11 10 2 0 4 -4 4 -10z"/>
<path d="M7090 8434 c0 -8 60 -119 107 -198 86 -145 103 -174 131 -231 35 -70
97 -202 121 -260 44 -101 51 -115 62 -115 8 0 8 4 2 13 -6 6 -13 25 -17 40
-12 49 -138 322 -194 422 -51 89 -203 335 -208 335 -2 0 -4 -3 -4 -6z"/>
<path d="M8578 7938 c-20 -20 -22 -28 -8 -28 9 0 35 39 28 44 -2 2 -11 -6 -20
-16z"/>
<path d="M8530 7840 c0 -5 7 -10 15 -10 8 0 15 5 15 10 0 6 -7 10 -15 10 -8 0
-15 -4 -15 -10z"/>
<path d="M8525 7699 c-10 -15 3 -25 16 -12 7 7 7 13 1 17 -6 3 -14 1 -17 -5z"/>
<path d="M8450 7620 c0 -5 4 -10 9 -10 6 0 13 5 16 10 3 6 -1 10 -9 10 -9 0
-16 -4 -16 -10z"/>
<path d="M9189 7269 c-45 -7 -89 -24 -89 -35 0 -16 47 -64 62 -64 10 0 18 -7
18 -16 0 -11 9 -14 37 -12 33 3 38 7 46 37 8 32 -5 86 -22 94 -3 2 -27 0 -52
-4z"/>
<path d="M9415 7273 c-52 -9 -65 -14 -65 -23 0 -5 33 -26 73 -47 39 -21 95
-56 122 -79 71 -57 135 -67 135 -20 0 62 -188 183 -265 169z"/>
<path d="M5887 7112 c-22 -24 -57 -102 -57 -129 0 -58 41 -23 76 63 29 72 19
108 -19 66z"/>
<path d="M5549 7065 c-58 -31 -114 -159 -79 -180 16 -10 50 33 50 65 0 23 7
33 29 45 36 18 61 52 54 71 -6 17 -21 17 -54 -1z"/>
<path d="M5164 6973 c-72 -69 -126 -158 -132 -213 -3 -35 -1 -50 8 -50 18 0
49 42 50 66 0 11 24 54 53 94 79 109 83 118 71 130 -8 8 -22 1 -50 -27z"/>
<path d="M5034 6931 c-37 -22 -99 -96 -113 -134 -14 -37 -14 -104 0 -113 18
-11 41 21 50 72 7 38 20 59 64 105 74 77 73 115 -1 70z"/>
<path d="M10009 6946 c-2 -3 -39 -14 -82 -26 -77 -20 -273 -88 -332 -115 -17
-7 -51 -23 -78 -34 -26 -11 -47 -25 -47 -30 0 -6 -15 -13 -34 -17 -33 -6 -85
-48 -74 -59 5 -6 121 39 228 87 83 38 296 105 375 119 84 14 105 24 105 48 0
23 -45 43 -61 27z"/>
<path d="M5595 6689 c-55 -10 -118 -21 -140 -24 -106 -13 -283 -37 -305 -41
-14 -3 -83 -7 -155 -10 -123 -6 -162 -15 -149 -35 8 -14 181 -10 316 7 175 22
431 73 470 95 10 5 28 9 40 10 13 0 32 4 43 9 l20 9 -20 -1 c-11 0 -65 -8
-120 -19z"/>
<path d="M10250 6376 c0 -9 7 -12 20 -9 11 3 17 9 14 14 -8 14 -34 10 -34 -5z"/>
<path d="M4921 6350 c-69 -15 -114 -52 -78 -66 7 -2 42 2 78 11 35 8 94 15
131 15 67 0 209 -16 238 -27 8 -4 18 -6 21 -5 4 1 21 -3 39 -8 32 -9 120 -3
120 9 0 3 -28 13 -63 22 -34 9 -87 24 -117 34 -64 20 -300 29 -369 15z"/>
<path d="M9588 6273 c6 -2 18 -2 25 0 6 3 1 5 -13 5 -14 0 -19 -2 -12 -5z"/>
<path d="M5355 6030 c3 -5 16 -10 28 -10 18 0 19 2 7 10 -20 13 -43 13 -35 0z"/>
<path d="M8586 5918 c-53 -60 -59 -75 -52 -123 6 -35 11 -45 26 -45 11 0 26
12 34 28 19 38 40 54 59 46 31 -11 29 -38 -4 -67 -26 -24 -37 -28 -65 -23 -45
9 -61 -18 -40 -69 16 -39 37 -44 95 -24 24 8 35 8 46 -1 30 -25 17 -57 -42
-108 -32 -28 -61 -48 -65 -46 -4 3 -10 21 -14 42 -10 60 -45 150 -65 168 -17
16 -19 16 -25 0 -4 -9 3 -41 14 -71 31 -81 37 -161 17 -215 -9 -25 -22 -58
-28 -75 -12 -35 -108 -101 -232 -160 -44 -21 -87 -41 -96 -45 -30 -15 -125
-30 -204 -33 -72 -2 -88 2 -160 33 -44 19 -119 58 -167 87 -48 29 -90 53 -94
53 -3 0 -18 8 -32 19 -15 10 -67 39 -116 65 -78 40 -92 44 -104 32 -13 -12
-11 -18 11 -40 31 -30 30 -31 -63 -11 -80 17 -107 29 -131 59 -35 42 -48 161
-25 217 4 9 40 32 79 50 81 37 135 41 190 13 40 -21 127 -85 146 -107 7 -10
17 -17 22 -17 16 0 9 61 -10 88 -10 15 -21 39 -24 53 -4 15 -23 41 -43 59
l-36 32 -152 -5 c-160 -5 -197 -14 -311 -74 -209 -110 -427 -329 -470 -470
-10 -35 21 -29 40 6 21 42 196 217 285 285 64 50 157 106 175 106 3 0 5 -35 5
-77 0 -67 4 -86 36 -153 24 -50 47 -84 68 -98 42 -28 253 -74 331 -71 73 3 99
-8 228 -95 55 -36 101 -66 103 -66 3 0 29 -15 59 -34 29 -19 70 -39 92 -45 49
-14 161 -14 221 0 109 24 138 33 152 44 8 6 38 24 65 40 28 15 62 39 78 51 15
13 34 21 42 17 9 -3 22 0 30 7 24 20 75 122 82 163 5 32 14 43 58 73 67 44
154 129 166 162 13 33 4 68 -27 109 -23 31 -24 34 -9 62 20 41 19 57 -11 121
-28 62 -70 110 -94 110 -8 0 -28 -15 -44 -32z"/>
<path d="M12075 5820 c-3 -5 -1 -10 4 -10 6 0 11 5 11 10 0 6 -2 10 -4 10 -3
0 -8 -4 -11 -10z"/>
<path d="M5911 5734 c0 -11 3 -14 6 -6 3 7 2 16 -1 19 -3 4 -6 -2 -5 -13z"/>
<path d="M7660 5705 c-23 -60 -31 -117 -19 -131 16 -20 24 -9 21 29 -2 18 1
52 7 77 11 51 6 66 -9 25z"/>
<path d="M12010 5620 c0 -5 5 -10 10 -10 6 0 10 5 10 10 0 6 -4 10 -10 10 -5
0 -10 -4 -10 -10z"/>
<path d="M12165 5560 c3 -5 8 -10 11 -10 2 0 4 5 4 10 0 6 -5 10 -11 10 -5 0
-7 -4 -4 -10z"/>
<path d="M9115 5309 c-10 -15 75 -94 168 -156 43 -29 80 -53 82 -53 3 0 27
-13 53 -30 156 -96 443 -145 682 -117 71 9 107 30 80 48 -8 5 -31 7 -51 4 -20
-2 -87 -7 -150 -11 -200 -11 -311 16 -529 126 -137 69 -181 95 -250 148 -76
57 -76 57 -85 41z"/>
<path d="M6311 4863 c-86 -88 -293 -253 -316 -253 -6 0 -20 -9 -30 -20 -10
-11 -23 -20 -29 -20 -6 0 -69 -30 -140 -65 -71 -36 -150 -70 -175 -76 -25 -6
-52 -16 -61 -23 -42 -35 -302 -97 -437 -103 -63 -3 -116 -9 -118 -13 -23 -37
153 -47 290 -16 121 27 211 55 340 106 328 129 630 329 756 500 76 102 28 92
-80 -17z"/>
<path d="M8403 4725 c-64 -18 -146 -56 -150 -71 -2 -6 7 -15 19 -21 18 -8 36
-4 88 19 106 48 173 44 403 -28 60 -19 115 -34 123 -34 24 0 15 20 -13 31 -16
6 -44 19 -63 29 -19 9 -57 23 -85 30 -27 7 -77 21 -110 31 -87 25 -152 30
-212 14z"/>
<path d="M10331 4681 c-24 -24 -51 -116 -66 -221 -2 -14 -8 -47 -15 -75 -32
-142 -35 -188 -16 -204 12 -10 19 -11 30 -2 28 23 87 190 102 289 6 42 18 92
31 137 20 64 -26 116 -66 76z"/>
<path d="M7620 4560 c-227 -54 -411 -128 -705 -283 -326 -171 -360 -189 -385
-206 -14 -9 -37 -23 -52 -31 -36 -17 -38 -50 -3 -50 33 0 63 14 184 87 57 35
104 63 105 63 1 0 72 38 157 85 84 47 160 85 166 85 7 0 13 5 13 10 0 6 4 10
10 10 5 0 33 11 62 24 156 72 361 148 543 202 33 9 64 21 70 26 17 15 -48 7
-165 -22z"/>
<path d="M8906 4566 c8 -21 60 -52 112 -66 44 -11 199 -79 285 -125 26 -14 51
-25 56 -25 15 0 21 31 10 52 -11 21 -122 78 -151 78 -10 0 -41 11 -70 25 -74
35 -166 66 -211 72 -31 4 -36 2 -31 -11z"/>
<path d="M12157 4551 c-3 -11 1 -22 8 -25 8 -3 13 4 13 20 0 29 -14 32 -21 5z"/>
<path d="M9788 4533 c-18 -3 -31 -15 -42 -38 -10 -20 -22 -32 -30 -29 -7 3
-13 -1 -13 -8 -1 -65 -56 -143 -138 -199 -19 -13 -35 -29 -35 -36 0 -6 -9 -14
-19 -18 -37 -11 -39 -65 -2 -65 15 0 109 53 121 69 3 4 25 22 50 41 62 49 130
120 142 150 28 68 30 142 4 139 -6 -1 -23 -4 -38 -6z"/>
<path d="M8890 4505 c-10 -12 -10 -15 4 -15 9 0 16 7 16 15 0 8 -2 15 -4 15
-2 0 -9 -7 -16 -15z"/>
<path d="M3938 4502 c-21 -2 -30 -11 -39 -40 l-12 -36 72 -68 c70 -67 106 -83
117 -53 4 9 -7 30 -25 50 -34 39 -71 106 -71 129 0 19 -8 23 -42 18z"/>
<path d="M8649 4459 c16 -6 28 -6 35 1 7 7 -1 10 -24 9 -33 0 -34 -1 -11 -10z"/>
<path d="M8743 4463 c9 -2 23 -2 30 0 6 3 -1 5 -18 5 -16 0 -22 -2 -12 -5z"/>
<path d="M8975 4400 c-4 -7 -22 -10 -44 -8 -24 3 -40 0 -47 -10 -8 -11 -18
-12 -53 -2 -23 6 -51 8 -61 5 -12 -4 -20 -2 -20 5 0 6 -11 8 -27 4 -43 -10
-172 -22 -358 -34 -207 -13 -584 -82 -900 -165 -55 -15 -134 -35 -176 -45 -42
-10 -87 -23 -100 -28 -13 -5 -46 -16 -74 -25 -50 -15 -82 -23 -265 -71 -52
-13 -124 -33 -160 -44 -36 -11 -105 -32 -155 -47 -146 -45 -316 -106 -375
-135 -30 -15 -84 -41 -120 -58 -36 -16 -113 -53 -171 -81 -58 -28 -115 -51
-127 -51 -11 0 -28 -9 -36 -21 -15 -23 -9 -23 -166 -1 -36 5 -74 12 -86 16
-23 7 -78 -40 -90 -77 -8 -26 22 -50 53 -42 12 3 42 -2 65 -10 74 -26 149 -29
230 -10 40 10 77 21 82 26 19 17 46 9 78 -25 l33 -35 33 21 c29 18 43 20 112
14 51 -5 80 -4 85 3 14 24 32 7 79 -76 61 -106 169 -260 205 -290 33 -29 13
-29 -41 -2 -63 32 -72 10 -16 -43 59 -56 58 -55 173 -124 54 -32 113 -68 131
-79 18 -11 88 -54 156 -95 68 -41 142 -88 164 -106 23 -17 62 -41 86 -53 24
-11 53 -29 64 -38 10 -10 66 -49 124 -88 58 -38 130 -88 160 -110 30 -23 82
-56 115 -75 33 -18 75 -44 93 -58 32 -23 39 -24 130 -19 53 3 108 8 122 11 14
2 59 10 100 17 41 7 109 21 150 32 41 10 93 23 115 27 56 12 139 45 211 85 74
42 291 244 392 365 11 14 48 58 82 99 85 103 117 151 155 234 53 116 53 130
-1 238 -26 52 -50 96 -53 99 -16 13 -71 131 -71 152 0 13 -4 28 -9 34 -15 15
-18 79 -3 76 6 -1 12 5 12 13 0 17 26 20 35 4 4 -6 14 -8 23 -4 8 3 19 0 23
-7 10 -17 21 -5 14 15 -10 25 -81 42 -103 24 -7 -5 -15 -7 -19 -3 -24 24 94
46 125 23 8 -6 12 -6 12 2 0 6 -4 11 -10 11 -16 0 -12 22 8 36 20 16 42 18 42
4 0 -5 -9 -10 -20 -10 -23 0 -23 2 -9 -39 12 -34 34 -37 34 -5 0 10 10 23 23
29 12 5 22 13 22 18 0 4 -6 5 -12 1 -9 -5 -10 -4 -3 4 6 5 19 12 30 15 18 4
18 5 -2 6 -25 1 -32 21 -8 21 17 0 39 36 30 50 -3 5 3 13 13 19 10 5 24 21 31
35 8 14 18 23 22 20 4 -2 10 0 14 6 3 5 1 10 -6 10 -10 0 -10 3 -1 12 7 7 12
22 12 35 0 14 6 23 15 23 13 0 14 4 5 21 -9 15 -8 24 1 35 10 12 9 17 -5 27
-21 16 -11 47 15 47 10 0 19 4 19 9 0 17 61 40 90 35 32 -7 45 7 42 46 -2 21
5 28 41 44 86 36 119 96 53 96 -18 0 -44 -8 -57 -17 -75 -55 -114 -69 -184
-66 -114 5 -290 23 -313 33 -13 6 -37 10 -55 11 l-32 1 33 8 c36 8 49 17 40
26 -3 3 -9 0 -13 -6z m-179 -104 c11 -10 19 -300 9 -317 -3 -3 -5 -31 -6 -60
-1 -39 -10 -68 -31 -107 -16 -29 -32 -63 -34 -75 -2 -12 -11 -58 -20 -102 -9
-44 -16 -97 -16 -117 -1 -29 -5 -39 -22 -44 -11 -3 -34 -12 -51 -19 -26 -12
-152 -59 -309 -115 -27 -10 -55 -16 -61 -14 -11 4 -65 204 -65 239 0 8 -7 42
-17 75 -12 44 -21 60 -34 60 -14 0 -18 -12 -23 -67 -22 -252 -40 -332 -79
-351 -29 -14 -208 -50 -320 -65 -67 -8 -100 -8 -138 1 -27 7 -73 17 -101 23
-76 16 -147 49 -179 83 l-28 30 -63 -31 c-89 -43 -200 -53 -279 -25 -30 10
-69 17 -86 15 -28 -4 -86 16 -133 46 -31 20 -189 105 -280 151 -78 40 -112 51
-186 61 -58 8 -90 17 -88 23 2 6 25 22 50 35 25 14 72 42 104 63 33 21 63 38
67 38 16 0 63 51 63 69 0 13 16 24 58 38 75 26 243 79 312 98 91 25 287 79
425 118 72 20 175 48 230 63 55 14 129 34 165 45 80 24 157 39 451 93 163 30
499 55 629 48 47 -3 86 -5 86 -6z m464 -255 c0 -5 -8 -12 -17 -15 -12 -5 -13
-10 -5 -18 14 -14 -5 -34 -45 -48 -25 -9 -26 -9 -9 4 10 8 15 19 12 24 -3 6 1
12 9 16 9 3 15 18 15 36 0 28 2 30 20 20 11 -6 20 -15 20 -19z m-92 -129 c-10
-2 -18 -8 -18 -13 0 -5 -5 -9 -10 -9 -6 0 -6 7 2 19 7 12 18 17 27 13 14 -6
14 -7 -1 -10z m-98 -78 c0 -17 -27 -18 -33 -1 -2 6 -2 18 1 25 6 16 32 -4 32
-24z m-60 5 c0 -5 -4 -9 -10 -9 -5 0 -10 7 -10 16 0 8 5 12 10 9 6 -3 10 -10
10 -16z m-35 -40 c-5 -15 -4 -19 4 -15 6 4 11 3 11 -2 0 -5 -9 -12 -20 -15
-22 -6 -25 5 -10 34 14 25 23 24 15 -2z m-138 -61 c-3 -8 -6 -5 -6 6 -1 11 2
17 5 13 3 -3 4 -12 1 -19z m-9 -62 c0 -25 8 -71 18 -103 10 -32 16 -64 15 -71
-1 -8 4 -21 12 -30 7 -10 34 -56 58 -104 24 -48 52 -102 61 -120 34 -65 20
-122 -59 -241 -32 -47 -85 -117 -117 -154 -98 -113 -301 -308 -339 -326 -20
-10 -39 -22 -43 -28 -4 -6 -32 -22 -63 -36 -31 -14 -69 -31 -86 -39 -53 -24
-263 -76 -395 -98 -19 -3 -70 -6 -112 -7 l-77 -1 -93 57 c-51 32 -142 90 -203
130 -60 39 -148 97 -195 127 -47 31 -114 71 -150 91 -36 19 -105 58 -155 87
-49 29 -103 60 -119 69 -17 9 -35 20 -40 24 -14 10 -71 42 -121 68 -104 53
-150 85 -147 103 2 10 -5 28 -15 40 -11 11 -26 31 -34 42 -8 12 -58 83 -111
157 -105 146 -116 171 -70 157 111 -35 238 -89 365 -154 155 -80 276 -126 333
-126 19 0 67 -9 108 -20 41 -12 98 -25 128 -30 29 -5 82 -16 118 -23 36 -8
103 -20 148 -28 81 -12 85 -12 126 10 42 22 48 22 262 16 150 -5 235 -11 270
-22 67 -20 97 -15 104 17 6 25 65 64 280 185 25 14 52 29 60 35 8 5 59 25 114
44 122 44 149 74 109 118 -13 15 -14 23 -5 44 7 13 12 52 12 84 0 43 5 65 18
79 25 28 29 26 30 -23z m-1553 -436 c3 -5 -1 -10 -9 -10 -8 0 -18 5 -21 10 -3
6 1 10 9 10 8 0 18 -4 21 -10z"/>
<path d="M12031 4394 c0 -11 3 -14 6 -6 3 7 2 16 -1 19 -3 4 -6 -2 -5 -13z"/>
<path d="M5095 4210 c-14 -6 -2 -9 42 -9 34 -1 65 4 68 9 8 12 -81 12 -110 0z"/>
<path d="M4336 3995 c-3 -8 -1 -15 4 -15 6 0 10 7 10 15 0 8 -2 15 -4 15 -2 0
-6 -7 -10 -15z"/>
<path d="M10163 3943 c-11 -15 -27 -66 -37 -113 -9 -47 -26 -125 -36 -175 -33
-152 -48 -285 -34 -285 22 1 44 30 63 81 42 117 106 428 99 486 -4 38 -31 41
-55 6z"/>
<path d="M5203 3740 c-46 -19 -68 -110 -44 -182 22 -66 135 -152 210 -160 51
-5 47 13 -12 52 -73 49 -95 70 -117 112 -25 47 -25 95 0 133 34 51 20 68 -37
45z"/>
<path d="M8950 3659 c0 -5 5 -7 10 -4 6 3 10 8 10 11 0 2 -4 4 -10 4 -5 0 -10
-5 -10 -11z"/>
<path d="M4929 2873 c-18 -4 -15 -39 5 -59 22 -22 63 -44 69 -37 10 9 9 53 -1
53 -5 0 -14 11 -20 25 -11 24 -20 27 -53 18z"/>
<path d="M5000 2690 c0 -52 93 -182 205 -289 99 -93 157 -119 239 -107 63 10
60 46 -5 46 -75 0 -225 127 -358 302 -36 48 -58 68 -77 68 -2 0 -4 -9 -4 -20z"/>
<path d="M5381 2664 c0 -11 3 -14 6 -6 3 7 2 16 -1 19 -3 4 -6 -2 -5 -13z"/>
<path d="M9890 2100 c0 -5 4 -10 9 -10 6 0 13 5 16 10 3 6 -1 10 -9 10 -9 0
-16 -4 -16 -10z"/>
<path d="M9508 2028 c-39 -71 -109 -258 -122 -330 -6 -33 -4 -38 12 -38 17 0
66 29 49 30 -4 0 0 15 9 32 37 72 97 289 87 315 -8 19 -21 16 -35 -9z"/>
<path d="M9740 1975 c0 -8 7 -15 15 -15 9 0 12 6 9 15 -4 8 -10 15 -15 15 -5
0 -9 -7 -9 -15z"/>
<path d="M9710 1959 c0 -5 5 -7 10 -4 6 3 10 8 10 11 0 2 -4 4 -10 4 -5 0 -10
-5 -10 -11z"/>
<path d="M6310 1261 c0 -16 33 -80 74 -144 38 -59 143 -177 157 -177 26 0 0
51 -80 157 -92 122 -151 186 -151 164z"/>
<path d="M5095 1000 c-18 -7 -18 -8 5 -11 14 -2 25 -10 25 -17 0 -23 26 -31
46 -14 17 15 17 16 1 27 -25 17 -55 23 -77 15z"/>
<path d="M5062 958 c5 -15 28 -23 28 -10 0 5 -7 13 -16 16 -10 4 -14 1 -12 -6z"/>
<path d="M5230 920 c0 -5 7 -10 15 -10 8 0 15 5 15 10 0 6 -7 10 -15 10 -8 0
-15 -4 -15 -10z"/>
<path d="M5720 712 c0 -5 7 -13 16 -16 10 -4 14 -1 12 6 -5 15 -28 23 -28 10z"/>
<path d="M6057 494 c-8 -8 3 -34 14 -34 5 0 9 9 9 20 0 19 -11 26 -23 14z"/>
<path d="M6106 484 c-4 -9 -4 -19 -1 -22 3 -3 5 0 5 6 0 7 7 12 15 12 8 0 15
5 15 10 0 16 -27 11 -34 -6z"/>
<path d="M6156 443 c-11 -11 -6 -23 9 -23 8 0 15 4 15 9 0 13 -16 22 -24 14z"/>
<path d="M6320 421 c0 -26 -18 -37 -26 -17 -8 20 -24 21 -24 1 0 -8 -6 -12
-14 -9 -18 7 -27 -8 -17 -25 6 -9 11 -10 15 -2 4 6 25 11 46 11 37 0 39 1 37
30 -2 33 -17 42 -17 11z"/>
<path d="M6360 386 c0 -2 9 -6 20 -9 11 -3 18 -1 14 4 -5 9 -34 13 -34 5z"/>
<path d="M6200 366 c0 -9 7 -16 16 -16 9 0 14 5 12 12 -6 18 -28 21 -28 4z"/>
<path d="M6295 360 c3 -5 16 -10 28 -10 18 0 19 2 7 10 -20 13 -43 13 -35 0z"/>
<path d="M6375 320 c-3 -5 -2 -10 4 -10 5 0 13 5 16 10 3 6 2 10 -4 10 -5 0
-13 -4 -16 -10z"/>
<path d="M6410 313 c0 -5 5 -15 10 -23 8 -12 10 -11 10 8 0 12 -4 22 -10 22
-5 0 -10 -3 -10 -7z"/>
<path d="M6314 263 c3 -4 -4 -13 -16 -20 l-23 -12 22 -1 c19 0 53 23 53 36 0
2 -10 4 -22 4 -12 0 -18 -3 -14 -7z"/>
<path d="M6090 250 c0 -5 5 -10 10 -10 6 0 10 5 10 10 0 6 -4 10 -10 10 -5 0
-10 -4 -10 -10z"/>
<path d="M6421 224 c0 -11 3 -14 6 -6 3 7 2 16 -1 19 -3 4 -6 -2 -5 -13z"/>
<path d="M6535 220 c-3 -5 -1 -10 4 -10 6 0 11 5 11 10 0 6 -2 10 -4 10 -3 0
-8 -4 -11 -10z"/>
<path d="M6355 188 c10 -46 16 -53 28 -33 7 13 6 21 -5 29 -8 6 -13 17 -11 24
3 6 -1 12 -7 12 -8 0 -9 -10 -5 -32z"/>
<path d="M6191 194 c0 -11 3 -14 6 -6 3 7 2 16 -1 19 -3 4 -6 -2 -5 -13z"/>
<path d="M6495 180 c-4 -6 -1 -18 7 -27 7 -9 12 -18 11 -20 -9 -11 -1 -12 11
-1 12 11 12 14 0 21 -7 4 -11 14 -8 22 7 17 -11 21 -21 5z"/>
<path d="M6625 181 c-3 -5 -1 -12 5 -16 12 -7 30 2 30 16 0 12 -27 12 -35 0z"/>
<path d="M6421 165 c-1 -29 14 -51 24 -35 4 7 3 15 -2 19 -6 3 -13 13 -16 21
-4 11 -6 9 -6 -5z"/>
<path d="M6682 139 c-38 -15 -74 -47 -62 -54 6 -4 17 -2 24 4 7 6 21 9 30 5
25 -10 51 3 37 19 -8 10 -7 17 1 25 14 14 2 14 -30 1z"/>
<path d="M6545 110 c-3 -5 -1 -10 4 -10 6 0 11 5 11 10 0 6 -2 10 -4 10 -3 0
-8 -4 -11 -10z"/>
<path d="M6658 63 c6 -2 18 -2 25 0 6 3 1 5 -13 5 -14 0 -19 -2 -12 -5z"/>
<path d="M6765 30 c-3 -5 1 -10 10 -10 9 0 13 5 10 10 -3 6 -8 10 -10 10 -2 0
-7 -4 -10 -10z"/>
</g>
</svg>
